<svg width="208" height="210" viewBox="0 0 208 210" fill="none" xmlns="http://www.w3.org/2000/svg">
<path d="M50.0522 203.621H44.9212L44.4102 191.749H49.5412L50.0522 203.621Z" fill="#9F5B53"/>
<path d="M80.8452 203.621H75.7142L73.1382 191.749H78.2692L80.8452 203.621Z" fill="#9F5B53"/>
<path d="M75.3502 203.047H81.1112C81.2137 203.046 81.3133 203.081 81.3936 203.144C81.4738 203.208 81.5298 203.297 81.5522 203.397L82.5672 207.954C82.5904 208.065 82.5882 208.181 82.5607 208.291C82.5333 208.401 82.4813 208.504 82.4086 208.591C82.336 208.679 82.2445 208.749 82.1411 208.796C82.0377 208.843 81.9249 208.867 81.8112 208.864C79.8022 208.829 78.8222 208.71 76.2882 208.71C74.7342 208.71 71.5212 208.878 69.3652 208.878C67.2092 208.878 66.9362 206.743 67.8112 206.554C71.7662 205.686 73.2572 204.496 74.5172 203.362C74.7456 203.156 75.0429 203.044 75.3502 203.047Z" fill="#263238"/>
<path d="M44.9561 203.047H50.5561C50.6585 203.046 50.7582 203.081 50.8384 203.144C50.9187 203.208 50.9747 203.297 50.9971 203.397L52.0051 207.954C52.0306 208.064 52.0308 208.178 52.0056 208.288C51.9804 208.398 51.9305 208.501 51.8596 208.588C51.7888 208.676 51.6988 208.747 51.5967 208.794C51.4945 208.842 51.3828 208.866 51.2701 208.864C49.2471 208.829 46.3281 208.71 43.7871 208.71C40.8191 208.71 38.2571 208.878 34.7781 208.878C32.6781 208.878 32.0831 206.743 32.9651 206.554C36.9761 205.672 40.2521 205.581 43.7241 203.446C44.0881 203.198 44.5157 203.06 44.9561 203.047Z" fill="#263238"/>
<path d="M41.1831 36.0341L34.2601 33.2971C34.2601 33.2971 26.3011 49.5581 23.7601 50.3771C20.3511 51.4971 13.3441 54.5771 9.10915 55.1861C8.57015 55.8861 7.70915 57.9861 7.88415 58.7561C13.7221 60.6601 26.1611 58.1261 28.7371 56.1241C34.6521 51.5601 41.1831 36.0341 41.1831 36.0341Z" fill="#9F5B53"/>
<path d="M43.045 32.3451C44.774 36.9371 36.045 50.4471 36.045 50.4471L25.79 44.8471C27.3277 40.6446 29.3132 36.6198 31.712 32.8421C35.317 27.4661 41.148 27.3471 43.045 32.3451Z" fill="#FFB347"/>
<path opacity="0.6" d="M43.045 32.3451C44.774 36.9371 36.045 50.4471 36.045 50.4471L25.79 44.8471C27.3277 40.6446 29.3132 36.6198 31.712 32.8421C35.317 27.4661 41.148 27.3471 43.045 32.3451Z" fill="#FAFAFA"/>
<path d="M43.1991 32.9471C41.1901 31.9951 38.9361 32.7931 36.6681 36.5801C34.4001 40.3671 32.5731 46.7091 32.4121 48.5151L36.0171 50.4681C36.0171 50.4681 44.1021 37.9731 43.1991 32.9471Z" fill="#FFB347"/>
<path opacity="0.4" d="M43.1991 32.9471C41.1901 31.9951 38.9361 32.7931 36.6681 36.5801C34.4001 40.3671 32.5731 46.7091 32.4121 48.5151L36.0171 50.4681C36.0171 50.4681 44.1021 37.9731 43.1991 32.9471Z" fill="#FAFAFA"/>
<path d="M10.0052 55.1371L4.22319 52.7571L2.26318 59.0151C4.58334 59.3657 6.94302 59.3657 9.26318 59.0151L10.0052 55.1371Z" fill="#9F5B53"/>
<path d="M0.0161133 52.6101L0.114113 56.7681L2.26311 59.0151L4.22311 52.7641L0.0161133 52.6101Z" fill="#9F5B53"/>
<path d="M44.417 191.749L44.676 197.874H49.807L49.541 191.749H44.417Z" fill="#8A4743"/>
<path d="M78.2692 191.749H73.1382L74.4682 197.874H79.5992L78.2692 191.749Z" fill="#8A4743"/>
<path d="M36.9552 28.8381C36.9552 28.8381 30.9002 44.3221 36.6542 73.1691H64.0802C64.2692 68.9691 61.6232 48.4101 65.6902 28.5721C62.6571 27.9871 59.5894 27.5989 56.5062 27.4101C52.6221 27.186 48.7283 27.186 44.8442 27.4101C42.1813 27.6796 39.5435 28.157 36.9552 28.8381Z" fill="#FFB347"/>
<path opacity="0.6" d="M36.9552 28.8381C36.9552 28.8381 30.9002 44.3221 36.6542 73.1691H64.0802C64.2692 68.9691 61.6232 48.4101 65.6902 28.5721C62.6571 27.9871 59.5894 27.5989 56.5062 27.4101C52.6221 27.186 48.7283 27.186 44.8442 27.4101C42.1813 27.6796 39.5435 28.157 36.9552 28.8381Z" fill="#FAFAFA"/>
<path d="M59.7261 33.4721C59.2711 36.7341 60.3001 44.5461 63.4081 53.5761C63.363 45.8586 63.9977 38.1522 65.3051 30.5461V30.5041C63.4991 30.3221 60.1671 30.4131 59.7261 33.4721Z" fill="#FFB347"/>
<path opacity="0.4" d="M59.7261 33.4721C59.2711 36.7341 60.3001 44.5461 63.4081 53.5761C63.363 45.8586 63.9977 38.1522 65.3051 30.5461V30.5041C63.4991 30.3221 60.1671 30.4131 59.7261 33.4721Z" fill="#FAFAFA"/>
<path d="M43.0731 27.6131C43.6471 27.5361 44.2421 27.4661 44.8441 27.4101C48.7282 27.186 52.622 27.186 56.5061 27.4101C56.9961 27.4101 57.4861 27.4661 57.9761 27.5081L57.8081 27.9281C57.7311 28.1171 55.8621 32.6181 48.0081 32.6181C46.9791 32.6181 43.8641 32.6181 42.8841 30.5181C42.6973 30.0504 42.6173 29.5469 42.65 29.0443C42.6827 28.5416 42.8272 28.0527 43.0731 27.6131Z" fill="#FAFAFA"/>
<path d="M54.9802 16.5042C54.2452 20.2562 53.8812 24.9042 56.5062 27.4102C56.5062 27.4102 54.9942 31.2182 48.0222 31.2182C41.6522 31.2182 44.8442 27.4102 44.8442 27.4102C49.0442 26.4162 48.8062 21.2432 48.0782 18.3102L54.9802 16.5042Z" fill="#9F5B53"/>
<path d="M54.4901 19.9902L49.5481 17.9391L48.9111 18.1072C49.0662 18.9712 49.3272 19.8129 49.6881 20.6132C50.8362 22.6306 52.7118 24.1331 54.9311 24.8132C54.4791 23.2481 54.3295 21.6112 54.4901 19.9902Z" fill="#8A4743"/>
<path d="M61.9872 17.2601C61.1244 18.2055 59.926 18.7759 58.6482 18.8491C56.9542 18.9261 56.4852 17.3161 57.2482 15.9161C57.9482 14.6561 59.6982 13.1161 61.2452 13.6831C61.5836 13.8147 61.8837 14.0288 62.1182 14.3059C62.3528 14.5831 62.5143 14.9145 62.588 15.27C62.6618 15.6255 62.6454 15.9938 62.5405 16.3414C62.4355 16.689 62.2453 17.0048 61.9872 17.2601Z" fill="#8A4743"/>
<path d="M61.1542 5.45112C63.4642 6.92812 63.6042 14.1381 60.1462 15.1881C56.6882 16.2381 56.8002 2.63712 61.1542 5.45112Z" fill="#263238"/>
<path d="M47.9591 9.14713C47.3991 14.2081 46.8181 17.1411 48.9041 20.1441C52.0331 24.6661 58.6131 23.4481 60.6711 18.6531C62.5261 14.3411 63.1281 6.79513 58.5711 3.95313C57.5695 3.32209 56.4232 2.9576 55.2411 2.89428C54.0589 2.83096 52.8803 3.0709 51.817 3.59133C50.7537 4.11175 49.8411 4.89538 49.1659 5.86776C48.4907 6.84015 48.0753 7.96902 47.9591 9.14713Z" fill="#9F5B53"/>
<path d="M47.1192 12.2551C48.4702 12.9551 50.1502 9.65113 50.5002 6.19313C52.7962 8.37013 65.9002 8.09713 63.9192 4.94713C60.8532 0.0471295 49.6952 -1.00287 47.9522 2.22413C44.7672 2.36413 44.0462 10.7221 47.1192 12.2551Z" fill="#263238"/>
<path d="M44.7461 14.2711C45.2335 15.4556 46.1696 16.3992 47.3501 16.8961C48.9251 17.5331 49.9051 16.1961 49.6321 14.5931C49.3801 13.1931 48.2671 11.0931 46.6151 11.1491C46.2538 11.1625 45.9017 11.2659 45.5906 11.4499C45.2794 11.634 45.0192 11.8928 44.8335 12.203C44.6478 12.5132 44.5426 12.8648 44.5273 13.226C44.5121 13.5871 44.5873 13.9464 44.7461 14.2711Z" fill="#9F5B53"/>
<path d="M36.654 73.1691C36.654 73.1691 35.954 111.515 36.5 127.153C37.081 143.421 42.765 196.684 42.765 196.684H51.452C51.452 196.684 51.774 144.373 52.152 128.392C52.572 110.976 54.679 73.1691 54.679 73.1691H36.654Z" fill="#FFB347"/>
<path d="M52.0261 194.024C52.0681 194.024 52.0261 196.866 52.0261 196.866H42.0091L41.5891 193.674L52.0261 194.024Z" fill="#FFB347"/>
<path opacity="0.6" d="M52.0261 194.024C52.0681 194.024 52.0261 196.866 52.0261 196.866H42.0091L41.5891 193.674L52.0261 194.024Z" fill="#FAFAFA"/>
<path d="M48.6521 83.3471C48.8131 102.373 49.9611 113.93 52.3131 123.247C52.6141 114.147 53.1811 102.17 53.7131 92.2021L48.6521 83.3471Z" fill="#FFB347"/>
<path opacity="0.2" d="M48.6521 83.3471C48.8131 102.373 49.9611 113.93 52.3131 123.247C52.6141 114.147 53.1811 102.17 53.7131 92.2021L48.6521 83.3471Z" fill="black"/>
<path d="M46.384 73.1691C46.384 73.1691 52.201 112.369 55.4 127.069C58.9 143.169 72.081 196.712 72.081 196.712H81.475C81.475 196.712 72.781 144.45 70.786 128.532C68.616 111.249 64.08 73.2321 64.08 73.2321L46.384 73.1691Z" fill="#FFB347"/>
<path d="M81.4751 194.241C81.5101 194.241 81.9441 196.866 81.9441 196.866H71.6191L70.7021 193.849L81.4751 194.241Z" fill="#FFB347"/>
<path opacity="0.6" d="M81.4751 194.241C81.5101 194.241 81.9441 196.866 81.9441 196.866H71.6191L70.7021 193.849L81.4751 194.241Z" fill="#FAFAFA"/>
<path d="M77.6882 191.147C77.667 191.145 77.6469 191.137 77.6307 191.123C77.6144 191.109 77.6027 191.091 77.5972 191.07C77.5202 190.594 69.6802 143.407 67.8882 129.106C65.9422 113.587 61.8402 79.1681 61.7982 78.8181C61.7972 78.8071 61.7984 78.7959 61.8018 78.7854C61.8052 78.7748 61.8106 78.765 61.8177 78.7566C61.8249 78.7481 61.8336 78.7412 61.8435 78.7361C61.8534 78.731 61.8641 78.728 61.8752 78.7271C61.8982 78.7251 61.9212 78.7319 61.9394 78.7462C61.9576 78.7605 61.9697 78.7812 61.9732 78.8041C62.0152 79.1471 66.1102 113.566 68.0632 129.085C69.8552 143.386 77.6952 190.566 77.7722 191.042C77.7742 191.053 77.7739 191.064 77.7715 191.075C77.769 191.086 77.7644 191.097 77.7579 191.106C77.7513 191.115 77.7431 191.123 77.7335 191.129C77.7239 191.134 77.7133 191.138 77.7022 191.14L77.6882 191.147Z" fill="#FFB347"/>
<path opacity="0.2" d="M77.6882 191.147C77.667 191.145 77.6469 191.137 77.6307 191.123C77.6144 191.109 77.6027 191.091 77.5972 191.07C77.5202 190.594 69.6802 143.407 67.8882 129.106C65.9422 113.587 61.8402 79.1681 61.7982 78.8181C61.7972 78.8071 61.7984 78.7959 61.8018 78.7854C61.8052 78.7748 61.8106 78.765 61.8177 78.7566C61.8249 78.7481 61.8336 78.7412 61.8435 78.7361C61.8534 78.731 61.8641 78.728 61.8752 78.7271C61.8982 78.7251 61.9212 78.7319 61.9394 78.7462C61.9576 78.7605 61.9697 78.7812 61.9732 78.8041C62.0152 79.1471 66.1102 113.566 68.0632 129.085C69.8552 143.386 77.6952 190.566 77.7722 191.042C77.7742 191.053 77.7739 191.064 77.7715 191.075C77.769 191.086 77.7644 191.097 77.7579 191.106C77.7513 191.115 77.7431 191.123 77.7335 191.129C77.7239 191.134 77.7133 191.138 77.7022 191.14L77.6882 191.147Z" fill="black"/>
<path d="M55.3162 11.8632C55.2392 12.2692 55.4002 12.6332 55.6662 12.6822C55.9322 12.7312 56.2052 12.4372 56.2752 12.0242C56.3452 11.6112 56.1912 11.2542 55.9252 11.2052C55.6592 11.1562 55.4002 11.4502 55.3162 11.8632Z" fill="#263238"/>
<path d="M59.9221 12.6471C59.8521 13.0531 60.0061 13.4171 60.2721 13.4661C60.5381 13.5151 60.8111 13.2211 60.8881 12.8081C60.9651 12.3951 60.7971 12.0381 60.5311 11.9891C60.2651 11.9401 59.9921 12.2481 59.9221 12.6471Z" fill="#263238"/>
<path d="M58.4172 12.6052C58.6901 13.9341 59.1423 15.2199 59.7612 16.4272C59.4467 16.5741 59.1038 16.6503 58.7567 16.6503C58.4096 16.6503 58.0667 16.5741 57.7522 16.4272L58.4172 12.6052Z" fill="#892B29"/>
<path d="M56.3732 17.3791C56.4046 17.3834 56.4364 17.3756 56.4624 17.3575C56.4883 17.3393 56.5065 17.3121 56.5132 17.2811C56.5162 17.2655 56.5161 17.2494 56.5128 17.2338C56.5094 17.2182 56.503 17.2034 56.4939 17.1904C56.4847 17.1773 56.4731 17.1662 56.4595 17.1578C56.446 17.1493 56.431 17.1437 56.4152 17.1411C55.9084 17.0667 55.4261 16.8748 55.0068 16.5806C54.5874 16.2865 54.2427 15.8983 54.0002 15.4471C53.9865 15.4181 53.9622 15.3954 53.9322 15.3837C53.9023 15.372 53.869 15.3721 53.8392 15.3841C53.8242 15.3902 53.8106 15.3993 53.7993 15.4108C53.7879 15.4223 53.779 15.436 53.7731 15.4511C53.7672 15.4661 53.7644 15.4822 53.765 15.4984C53.7655 15.5146 53.7693 15.5305 53.7762 15.5451C54.0336 16.0341 54.4031 16.4553 54.8545 16.774C55.3059 17.0928 55.8263 17.3001 56.3732 17.3791Z" fill="#263238"/>
<path d="M54.182 10.1341C54.2195 10.1407 54.258 10.1384 54.2945 10.1274C54.3309 10.1165 54.3643 10.0972 54.392 10.0711C54.6089 9.85861 54.8726 9.69981 55.1619 9.60743C55.4512 9.51505 55.7581 9.49166 56.058 9.53913C56.1202 9.55407 56.1857 9.54415 56.2406 9.51145C56.2956 9.47876 56.3355 9.42588 56.352 9.36413C56.3615 9.33331 56.3643 9.30087 56.3605 9.26888C56.3566 9.23689 56.3461 9.20606 56.3296 9.17837C56.3132 9.15068 56.2911 9.12675 56.2648 9.10811C56.2385 9.08947 56.2086 9.07653 56.177 9.07013C55.801 9.00208 55.4141 9.02503 55.0488 9.13707C54.6835 9.2491 54.3503 9.44697 54.077 9.71413C54.0317 9.7611 54.0063 9.82384 54.0063 9.88913C54.0063 9.95441 54.0317 10.0171 54.077 10.0641C54.1065 10.0948 54.1424 10.1187 54.182 10.1341Z" fill="#263238"/>
<path d="M62.2741 11.3801C62.3087 11.3871 62.3444 11.3871 62.379 11.3801C62.4094 11.3692 62.4374 11.3523 62.4612 11.3305C62.4851 11.3088 62.5044 11.2825 62.5181 11.2532C62.5317 11.2239 62.5395 11.1922 62.5409 11.16C62.5422 11.1277 62.5372 11.0954 62.526 11.0651C62.403 10.6996 62.1947 10.3687 61.9184 10.0997C61.6421 9.83068 61.3057 9.63132 60.9371 9.51812C60.8739 9.5034 60.8076 9.5143 60.7525 9.54841C60.6974 9.58252 60.658 9.63706 60.6431 9.70011C60.6302 9.76309 60.6418 9.8286 60.6757 9.88325C60.7095 9.9379 60.7629 9.97757 60.825 9.99412C61.1167 10.0859 61.3821 10.2463 61.5989 10.4619C61.8157 10.6775 61.9776 10.942 62.071 11.2331C62.0864 11.2751 62.1139 11.3115 62.1501 11.3377C62.1862 11.3639 62.2294 11.3786 62.2741 11.3801Z" fill="#263238"/>
<path d="M67.153 32.0302L61 36.1741C61 36.1741 69.876 51.9592 69.127 54.4862C68.112 57.9302 66.698 65.4621 64.773 69.2771C65.025 70.1031 66.306 71.9862 67.02 72.3152C71.92 68.5842 76.876 56.9152 76.687 53.6462C76.239 46.2472 67.153 32.0302 67.153 32.0302Z" fill="#9F5B53"/>
<path d="M65.6902 28.5721C70.5412 29.2721 76.0992 46.0721 76.0992 46.0721L65.9002 51.8471C65.9002 51.8471 61.4132 43.8531 59.1942 37.9101C56.8842 31.6941 60.4822 27.8161 65.6902 28.5721Z" fill="#FFB347"/>
<path opacity="0.6" d="M65.6902 28.5721C70.5412 29.2721 76.0992 46.0721 76.0992 46.0721L65.9002 51.8471C65.9002 51.8471 61.4132 43.8531 59.1942 37.9101C56.8842 31.6941 60.4822 27.8161 65.6902 28.5721Z" fill="#FAFAFA"/>
<path d="M73.6561 203.922C73.3072 203.95 72.9591 203.859 72.6691 203.663C72.5784 203.584 72.5082 203.484 72.4643 203.372C72.4205 203.26 72.4043 203.139 72.4171 203.019C72.4186 202.948 72.4388 202.879 72.4757 202.819C72.5126 202.759 72.5649 202.71 72.6271 202.676C73.1871 202.389 74.8461 203.376 75.0351 203.523C75.0558 203.535 75.0724 203.552 75.0824 203.574C75.0925 203.595 75.0955 203.619 75.0911 203.642C75.0875 203.666 75.0769 203.688 75.0607 203.705C75.0445 203.723 75.0234 203.735 75.0001 203.74C74.5608 203.853 74.1097 203.914 73.6561 203.922ZM72.9001 202.865C72.8495 202.853 72.7967 202.853 72.7461 202.865C72.7111 202.865 72.6761 202.914 72.6691 203.012C72.6582 203.093 72.6671 203.176 72.6951 203.253C72.7232 203.329 72.7695 203.398 72.8301 203.453C73.4037 203.711 74.0536 203.744 74.6501 203.544C74.1165 203.206 73.522 202.976 72.9001 202.865Z" fill="#FFB347"/>
<path d="M75.0002 203.747H74.9372C74.4052 203.453 73.3832 202.347 73.4882 201.759C73.5075 201.67 73.557 201.589 73.6283 201.532C73.6997 201.475 73.7887 201.444 73.8802 201.444C73.9726 201.431 74.0667 201.438 74.1562 201.464C74.2456 201.491 74.3282 201.536 74.3982 201.598C74.9932 202.088 75.0982 203.565 75.0982 203.628C75.0977 203.65 75.0924 203.671 75.0827 203.69C75.0731 203.71 75.0592 203.727 75.0422 203.74L75.0002 203.747ZM73.9642 201.647H73.9082C73.7472 201.647 73.7332 201.738 73.7332 201.773C73.6632 202.109 74.3212 202.956 74.8462 203.362C74.8121 202.777 74.6023 202.216 74.2442 201.752C74.1583 201.68 74.0484 201.642 73.9362 201.647H73.9642Z" fill="#FFB347"/>
<path d="M42.8 203.929C42.3612 203.966 41.9228 203.855 41.554 203.614C41.4724 203.54 41.4095 203.447 41.3706 203.344C41.3316 203.24 41.3177 203.129 41.33 203.019C41.3323 202.952 41.3524 202.887 41.388 202.831C41.4237 202.774 41.4737 202.728 41.533 202.697C42.149 202.347 44.214 203.397 44.445 203.516C44.4693 203.526 44.4892 203.544 44.5008 203.567C44.5124 203.59 44.515 203.617 44.508 203.642C44.5054 203.666 44.4951 203.689 44.4788 203.706C44.4624 203.724 44.4407 203.736 44.417 203.74C43.8855 203.856 43.3439 203.919 42.8 203.929ZM41.876 202.865C41.7968 202.861 41.7179 202.876 41.645 202.907C41.6217 202.921 41.6023 202.94 41.5887 202.963C41.5752 202.987 41.5681 203.013 41.568 203.04C41.5615 203.112 41.5714 203.185 41.5968 203.253C41.6223 203.321 41.6627 203.382 41.715 203.432C42.037 203.712 42.877 203.754 44.011 203.572C43.3513 203.219 42.6365 202.98 41.897 202.865H41.876Z" fill="#FFB347"/>
<path d="M44.41 203.747H44.361C43.745 203.474 42.52 202.347 42.611 201.78C42.611 201.647 42.73 201.479 43.066 201.444C43.191 201.425 43.3187 201.433 43.4398 201.47C43.5609 201.506 43.6724 201.569 43.766 201.654C44.417 202.186 44.557 203.565 44.564 203.628C44.564 203.649 44.559 203.669 44.5492 203.688C44.5394 203.706 44.5253 203.722 44.508 203.733C44.4948 203.745 44.4785 203.752 44.4611 203.755C44.4437 203.757 44.426 203.754 44.41 203.747ZM43.164 201.647H43.087C42.87 201.647 42.856 201.759 42.849 201.787C42.793 202.137 43.626 203.005 44.249 203.383C44.1818 202.797 43.9376 202.245 43.549 201.801C43.4409 201.709 43.3057 201.655 43.164 201.647Z" fill="#FFB347"/>
<path d="M64.7521 69.2771L59.8521 68.8991L62.421 74.3031C62.421 74.3031 66.6981 74.4921 67.4121 71.2231L64.7521 69.2771Z" fill="#9F5B53"/>
<path d="M55.9111 71.3631L58.4731 76.1371L62.4421 74.2961L59.8731 68.8991L55.9111 71.3631Z" fill="#9F5B53"/>
<path d="M25.0621 209.375H18.2161L2.68311 41.5571L9.45911 40.9271L25.0621 209.375Z" fill="#FFB347"/>
<path opacity="0.3" d="M25.0621 209.375H18.2161L2.68311 41.5571L9.45911 40.9271L25.0621 209.375Z" fill="#FAFAFA"/>
<path d="M38.7261 209.375H31.8941L16.2351 40.3041L23.0111 39.6741L38.7261 209.375Z" fill="#FFB347"/>
<path opacity="0.3" d="M38.7261 209.375H31.8941L16.2351 40.3041L23.0111 39.6741L38.7261 209.375Z" fill="#FAFAFA"/>
<path d="M31.8942 209.375H25.0622L9.45923 40.9271L16.2352 40.3041L31.8942 209.375Z" fill="#FFB347"/>
<path opacity="0.4" d="M31.8942 209.375H25.0622L9.45923 40.9271L16.2352 40.3041L31.8942 209.375Z" fill="#FAFAFA"/>
<path d="M14.8071 28.5721L8.71011 29.1391L2.68311 41.5571L23.0111 39.6741L14.8071 28.5721Z" fill="#FFB347"/>
<path opacity="0.8" d="M14.8071 28.5721L8.71011 29.1391L2.68311 41.5571L23.0111 39.6741L14.8071 28.5721Z" fill="#FAFAFA"/>
<path d="M11.2862 23.8121L8.71021 29.1391L14.8072 28.5721L11.2862 23.8121Z" fill="#FFB347"/>
<path opacity="0.4" d="M11.2862 23.8121L8.71021 29.1391L14.8072 28.5721L11.2862 23.8121Z" fill="#FAFAFA"/>
<path d="M194.952 17.0922L187 16.2101C187.029 21.6666 186.508 27.1121 185.446 32.4641L182.702 46.2051L190.647 47.0871L193.391 33.3462C194.454 27.9941 194.974 22.5486 194.945 17.0922H194.952Z" fill="#FFB347"/>
<path opacity="0.4" d="M194.952 17.0922L187 16.2101C187.029 21.6666 186.508 27.1121 185.446 32.4641L182.702 46.2051L190.647 47.0871L193.391 33.3462C194.454 27.9941 194.974 22.5486 194.945 17.0922H194.952Z" fill="#FAFAFA"/>
<path d="M207.664 33.4721H84.9889L69.7849 209.382H192.46L207.664 33.4721Z" fill="#FFB347"/>
<path opacity="0.8" d="M207.664 33.4721H84.9889L69.7849 209.382H192.46L207.664 33.4721Z" fill="#FAFAFA"/>
<path d="M193.209 200.667H70.5409L69.7849 209.382H192.46L193.209 200.667Z" fill="#FFB347"/>
<path opacity="0.4" d="M193.209 200.667H70.5409L69.7849 209.382H192.46L193.209 200.667Z" fill="#FAFAFA"/>
<path d="M199.67 33.4721H76.995L61.791 209.382H184.466L199.67 33.4721Z" fill="#FAFAFA"/>
<path d="M185.215 200.667H62.547L61.791 209.382H184.466L185.215 200.667Z" fill="#FFB347"/>
<path opacity="0.6" d="M185.215 200.667H62.547L61.791 209.382H184.466L185.215 200.667Z" fill="#FAFAFA"/>
<path d="M191.27 42.2991H83.8831C83.8638 42.2991 83.8447 42.2953 83.8268 42.2879C83.809 42.2805 83.7928 42.2697 83.7791 42.2561C83.7655 42.2424 83.7547 42.2262 83.7473 42.2084C83.7399 42.1905 83.7361 42.1714 83.7361 42.1521C83.7378 42.1137 83.7538 42.0773 83.781 42.0501C83.8082 42.0229 83.8447 42.0068 83.8831 42.0051H191.27C191.31 42.0051 191.348 42.0203 191.377 42.0477C191.405 42.0751 191.422 42.1125 191.424 42.1521C191.424 42.172 191.42 42.1917 191.412 42.21C191.404 42.2284 191.393 42.2449 191.379 42.2586C191.364 42.2724 191.347 42.2831 191.329 42.29C191.31 42.297 191.29 42.3001 191.27 42.2991Z" fill="#FFB347"/>
<path d="M190.661 49.3621H83.274C83.235 49.3621 83.1976 49.3466 83.17 49.3191C83.1424 49.2915 83.127 49.2541 83.127 49.2151C83.1287 49.1767 83.1447 49.1403 83.1719 49.1131C83.1991 49.0859 83.2355 49.0698 83.274 49.0681H190.661C190.7 49.0681 190.737 49.0836 190.765 49.1112C190.792 49.1387 190.808 49.1761 190.808 49.2151C190.808 49.2541 190.792 49.2915 190.765 49.3191C190.737 49.3466 190.7 49.3621 190.661 49.3621Z" fill="#FFB347"/>
<path d="M190.052 56.4252H82.7C82.661 56.4252 82.6236 56.4097 82.596 56.3821C82.5685 56.3545 82.553 56.3172 82.553 56.2782C82.553 56.2392 82.5685 56.2018 82.596 56.1742C82.6236 56.1467 82.661 56.1312 82.7 56.1312H190.052C190.091 56.1312 190.128 56.1467 190.156 56.1742C190.183 56.2018 190.199 56.2392 190.199 56.2782C190.199 56.3172 190.183 56.3545 190.156 56.3821C190.128 56.4097 190.091 56.4252 190.052 56.4252Z" fill="#FFB347"/>
<path d="M189.443 63.4882H82.0559C82.017 63.4882 81.9796 63.4727 81.952 63.4451C81.9244 63.4175 81.9089 63.3801 81.9089 63.3411C81.9089 63.3022 81.9244 63.2648 81.952 63.2372C81.9796 63.2096 82.017 63.1942 82.0559 63.1942H189.443C189.462 63.1942 189.481 63.1979 189.499 63.2053C189.517 63.2127 189.533 63.2236 189.547 63.2372C189.561 63.2509 189.571 63.2671 189.579 63.2849C189.586 63.3027 189.59 63.3218 189.59 63.3411C189.59 63.3605 189.586 63.3796 189.579 63.3974C189.571 63.4152 189.561 63.4314 189.547 63.4451C189.533 63.4587 189.517 63.4696 189.499 63.477C189.481 63.4843 189.462 63.4882 189.443 63.4882Z" fill="#FFB347"/>
<path d="M188.834 70.5511H81.4471C81.4081 70.5511 81.3707 70.5357 81.3431 70.5081C81.3155 70.4805 81.3 70.4431 81.3 70.4041C81.3 70.3651 81.3155 70.3278 81.3431 70.3002C81.3707 70.2726 81.4081 70.2571 81.4471 70.2571H188.834C188.873 70.2571 188.91 70.2726 188.938 70.3002C188.966 70.3278 188.981 70.3651 188.981 70.4041C188.981 70.4431 188.966 70.4805 188.938 70.5081C188.91 70.5357 188.873 70.5511 188.834 70.5511Z" fill="#FFB347"/>
<path d="M188.218 77.6141H80.8379C80.7989 77.6141 80.7615 77.5986 80.734 77.5711C80.7064 77.5435 80.6909 77.5061 80.6909 77.4671C80.6909 77.4281 80.7064 77.3908 80.734 77.3632C80.7615 77.3356 80.7989 77.3201 80.8379 77.3201H188.218C188.257 77.3201 188.294 77.3356 188.322 77.3632C188.349 77.3908 188.365 77.4281 188.365 77.4671C188.365 77.5061 188.349 77.5435 188.322 77.5711C188.294 77.5986 188.257 77.6141 188.218 77.6141Z" fill="#FFB347"/>
<path d="M187.609 84.6771H80.222C80.183 84.6771 80.1456 84.6616 80.118 84.6341C80.0904 84.6065 80.075 84.5691 80.075 84.5301C80.075 84.4911 80.0904 84.4537 80.118 84.4262C80.1456 84.3986 80.183 84.3831 80.222 84.3831H187.609C187.648 84.3831 187.685 84.3986 187.713 84.4262C187.74 84.4537 187.756 84.4911 187.756 84.5301C187.756 84.5691 187.74 84.6065 187.713 84.6341C187.685 84.6616 187.648 84.6771 187.609 84.6771Z" fill="#FFB347"/>
<path d="M187 91.7471H79.6131C79.5741 91.7471 79.5367 91.7316 79.5091 91.7041C79.4816 91.6765 79.4661 91.6391 79.4661 91.6001C79.4661 91.5611 79.4816 91.5237 79.5091 91.4962C79.5367 91.4686 79.5741 91.4531 79.6131 91.4531H187C187.039 91.4531 187.076 91.4686 187.104 91.4962C187.132 91.5237 187.147 91.5611 187.147 91.6001C187.147 91.6391 187.132 91.6765 187.104 91.7041C187.076 91.7316 187.039 91.7471 187 91.7471Z" fill="#FFB347"/>
<path d="M186.391 98.8031H79.0039C78.965 98.8031 78.9276 98.7877 78.9 98.7601C78.8724 98.7325 78.8569 98.6951 78.8569 98.6561C78.8569 98.6172 78.8724 98.5798 78.9 98.5522C78.9276 98.5246 78.965 98.5092 79.0039 98.5092H186.391C186.43 98.5092 186.467 98.5246 186.495 98.5522C186.522 98.5798 186.538 98.6172 186.538 98.6561C186.538 98.6951 186.522 98.7325 186.495 98.7601C186.467 98.7877 186.43 98.8031 186.391 98.8031Z" fill="#FFB347"/>
<path d="M185.782 105.866H78.3951C78.3561 105.866 78.3187 105.851 78.2911 105.823C78.2635 105.796 78.248 105.758 78.248 105.719C78.248 105.68 78.2635 105.643 78.2911 105.615C78.3187 105.588 78.3561 105.572 78.3951 105.572H185.782C185.821 105.572 185.858 105.588 185.886 105.615C185.914 105.643 185.929 105.68 185.929 105.719C185.927 105.758 185.911 105.794 185.884 105.821C185.857 105.848 185.82 105.864 185.782 105.866Z" fill="#FFB347"/>
<path d="M185.166 112.929H77.7999C77.7775 112.934 77.7542 112.934 77.7318 112.929C77.7094 112.923 77.6885 112.913 77.6706 112.899C77.6527 112.884 77.6383 112.866 77.6284 112.845C77.6184 112.824 77.6133 112.802 77.6133 112.779C77.6133 112.756 77.6184 112.733 77.6284 112.712C77.6383 112.691 77.6527 112.673 77.6706 112.659C77.6885 112.644 77.7094 112.634 77.7318 112.629C77.7542 112.623 77.7775 112.623 77.7999 112.628H185.18C185.202 112.623 185.226 112.623 185.248 112.629C185.27 112.634 185.291 112.644 185.309 112.659C185.327 112.673 185.342 112.691 185.352 112.712C185.361 112.733 185.367 112.756 185.367 112.779C185.367 112.802 185.361 112.824 185.352 112.845C185.342 112.866 185.327 112.884 185.309 112.899C185.291 112.913 185.27 112.923 185.248 112.929C185.226 112.934 185.202 112.934 185.18 112.929H185.166Z" fill="#FFB347"/>
<path d="M184.557 119.992H77.1699C77.1356 119.985 77.1048 119.966 77.0827 119.938C77.0606 119.911 77.0486 119.877 77.0486 119.842C77.0486 119.806 77.0606 119.772 77.0827 119.745C77.1048 119.718 77.1356 119.699 77.1699 119.691H184.557C184.577 119.691 184.597 119.695 184.615 119.703C184.633 119.711 184.65 119.722 184.663 119.737C184.677 119.751 184.688 119.768 184.695 119.787C184.702 119.805 184.705 119.825 184.704 119.845C184.704 119.884 184.688 119.922 184.661 119.949C184.633 119.977 184.596 119.992 184.557 119.992Z" fill="#FFB347"/>
<path d="M183.948 127.055H76.561C76.5411 127.055 76.5214 127.051 76.5031 127.043C76.4848 127.036 76.4682 127.024 76.4545 127.01C76.4407 126.995 76.4301 126.978 76.4231 126.96C76.4161 126.941 76.413 126.921 76.414 126.901C76.414 126.862 76.4295 126.825 76.457 126.797C76.4846 126.77 76.522 126.754 76.561 126.754H183.948C183.987 126.754 184.024 126.77 184.052 126.797C184.079 126.825 184.095 126.862 184.095 126.901C184.096 126.921 184.093 126.941 184.086 126.96C184.079 126.978 184.068 126.995 184.054 127.01C184.041 127.024 184.024 127.036 184.006 127.043C183.988 127.051 183.968 127.055 183.948 127.055Z" fill="#FFB347"/>
<path d="M183.339 134.118H75.9521C75.9322 134.118 75.9125 134.114 75.8942 134.106C75.8759 134.098 75.8593 134.087 75.8456 134.073C75.8319 134.058 75.8212 134.041 75.8142 134.023C75.8073 134.004 75.8042 133.984 75.8051 133.964C75.8051 133.925 75.8206 133.888 75.8482 133.86C75.8757 133.833 75.9131 133.817 75.9521 133.817H183.339C183.373 133.825 183.404 133.844 183.426 133.871C183.448 133.898 183.46 133.932 183.46 133.968C183.46 134.003 183.448 134.037 183.426 134.064C183.404 134.092 183.373 134.111 183.339 134.118Z" fill="#FFB347"/>
<path d="M182.73 141.181H75.343C75.3231 141.181 75.3034 141.177 75.285 141.169C75.2667 141.161 75.2502 141.15 75.2365 141.136C75.2227 141.121 75.212 141.104 75.2051 141.086C75.1981 141.067 75.195 141.047 75.196 141.027C75.196 140.988 75.2115 140.951 75.239 140.923C75.2666 140.896 75.304 140.88 75.343 140.88H182.73C182.764 140.888 182.795 140.907 182.817 140.934C182.839 140.961 182.851 140.995 182.851 141.031C182.851 141.066 182.839 141.1 182.817 141.127C182.795 141.155 182.764 141.174 182.73 141.181Z" fill="#FFB347"/>
<path d="M182.1 148.244H74.734C74.7115 148.249 74.6883 148.249 74.6659 148.243C74.6435 148.238 74.6226 148.228 74.6047 148.214C74.5868 148.199 74.5724 148.181 74.5624 148.16C74.5525 148.139 74.5474 148.117 74.5474 148.094C74.5474 148.071 74.5525 148.048 74.5624 148.027C74.5724 148.006 74.5868 147.988 74.6047 147.974C74.6226 147.959 74.6435 147.949 74.6659 147.944C74.6883 147.938 74.7115 147.938 74.734 147.943H182.1C182.122 147.938 182.146 147.938 182.168 147.944C182.191 147.949 182.211 147.959 182.229 147.974C182.247 147.988 182.262 148.006 182.272 148.027C182.282 148.048 182.287 148.071 182.287 148.094C182.287 148.117 182.282 148.139 182.272 148.16C182.262 148.181 182.247 148.199 182.229 148.214C182.211 148.228 182.191 148.238 182.168 148.243C182.146 148.249 182.122 148.249 182.1 148.244Z" fill="#FFB347"/>
<path d="M181.505 155.3H74.118C74.079 155.3 74.0416 155.285 74.014 155.257C73.9864 155.229 73.9709 155.192 73.9709 155.153C73.9709 155.114 73.9864 155.077 74.014 155.049C74.0416 155.022 74.079 155.006 74.118 155.006H181.505C181.544 155.006 181.581 155.022 181.609 155.049C181.636 155.077 181.652 155.114 181.652 155.153C181.652 155.192 181.636 155.229 181.609 155.257C181.581 155.285 181.544 155.3 181.505 155.3Z" fill="#FFB347"/>
<path d="M180.896 162.363H73.5091C73.4701 162.363 73.4327 162.348 73.4051 162.32C73.3775 162.292 73.3621 162.255 73.3621 162.216C73.3621 162.177 73.3775 162.14 73.4051 162.112C73.4327 162.085 73.4701 162.069 73.5091 162.069H180.896C180.935 162.069 180.972 162.085 181 162.112C181.028 162.14 181.043 162.177 181.043 162.216C181.043 162.255 181.028 162.292 181 162.32C180.972 162.348 180.935 162.363 180.896 162.363Z" fill="#FFB347"/>
<path d="M180.287 169.447H72.8999C72.8609 169.447 72.8236 169.432 72.796 169.404C72.7684 169.376 72.7529 169.339 72.7529 169.3C72.7529 169.261 72.7684 169.224 72.796 169.196C72.8236 169.169 72.8609 169.153 72.8999 169.153H180.287C180.326 169.153 180.363 169.169 180.391 169.196C180.418 169.224 180.434 169.261 180.434 169.3C180.434 169.339 180.418 169.376 180.391 169.404C180.363 169.432 180.326 169.447 180.287 169.447Z" fill="#FFB347"/>
<path d="M179.678 176.489H72.291C72.2521 176.489 72.2147 176.474 72.1871 176.446C72.1595 176.419 72.144 176.381 72.144 176.342C72.144 176.303 72.1595 176.266 72.1871 176.238C72.2147 176.211 72.2521 176.195 72.291 176.195H179.678C179.717 176.195 179.754 176.211 179.782 176.238C179.81 176.266 179.825 176.303 179.825 176.342C179.825 176.381 179.81 176.419 179.782 176.446C179.754 176.474 179.717 176.489 179.678 176.489Z" fill="#FFB347"/>
<path d="M179.062 183.552H71.6819C71.6429 183.552 71.6055 183.537 71.578 183.509C71.5504 183.481 71.5349 183.444 71.5349 183.405C71.5349 183.366 71.5504 183.329 71.578 183.301C71.6055 183.274 71.6429 183.258 71.6819 183.258H179.062C179.101 183.258 179.138 183.274 179.166 183.301C179.193 183.329 179.209 183.366 179.209 183.405C179.209 183.444 179.193 183.481 179.166 183.509C179.138 183.537 179.101 183.552 179.062 183.552Z" fill="#FFB347"/>
<path d="M178.453 190.615H71.066C71.027 190.615 70.9896 190.6 70.962 190.572C70.9344 190.545 70.9189 190.507 70.9189 190.468C70.9189 190.429 70.9344 190.392 70.962 190.364C70.9896 190.337 71.027 190.321 71.066 190.321H178.453C178.492 190.321 178.529 190.337 178.557 190.364C178.584 190.392 178.6 190.429 178.6 190.468C178.6 190.507 178.584 190.545 178.557 190.572C178.529 190.6 178.492 190.615 178.453 190.615Z" fill="#FFB347"/>
<g opacity="0.5">
<path opacity="0.5" d="M191.27 42.2991H83.8828C83.8635 42.2991 83.8444 42.2953 83.8266 42.2879C83.8088 42.2805 83.7925 42.2697 83.7789 42.2561C83.7652 42.2424 83.7544 42.2262 83.747 42.2084C83.7396 42.1905 83.7358 42.1714 83.7358 42.1521C83.7376 42.1137 83.7536 42.0773 83.7808 42.0501C83.808 42.0229 83.8444 42.0068 83.8828 42.0051H191.27C191.31 42.0051 191.348 42.0203 191.376 42.0477C191.405 42.0751 191.422 42.1125 191.424 42.1521C191.424 42.172 191.42 42.1917 191.412 42.21C191.404 42.2284 191.393 42.2449 191.378 42.2586C191.364 42.2724 191.347 42.2831 191.328 42.29C191.31 42.297 191.29 42.3001 191.27 42.2991Z" fill="#FAFAFA"/>
<path opacity="0.5" d="M190.661 49.3622H83.274C83.235 49.3622 83.1976 49.3467 83.17 49.3191C83.1424 49.2916 83.127 49.2542 83.127 49.2152C83.1287 49.1767 83.1447 49.1403 83.1719 49.1131C83.1991 49.0859 83.2355 49.0699 83.274 49.0682H190.661C190.7 49.0682 190.737 49.0837 190.765 49.1112C190.792 49.1388 190.808 49.1762 190.808 49.2152C190.808 49.2542 190.792 49.2916 190.765 49.3191C190.737 49.3467 190.7 49.3622 190.661 49.3622Z" fill="#FAFAFA"/>
<path opacity="0.5" d="M190.052 56.4252H82.7C82.661 56.4252 82.6236 56.4097 82.596 56.3821C82.5685 56.3545 82.553 56.3172 82.553 56.2782C82.553 56.2392 82.5685 56.2018 82.596 56.1742C82.6236 56.1467 82.661 56.1312 82.7 56.1312H190.052C190.091 56.1312 190.128 56.1467 190.156 56.1742C190.183 56.2018 190.199 56.2392 190.199 56.2782C190.199 56.3172 190.183 56.3545 190.156 56.3821C190.128 56.4097 190.091 56.4252 190.052 56.4252Z" fill="#FAFAFA"/>
<path opacity="0.5" d="M189.443 63.4882H82.0559C82.017 63.4882 81.9796 63.4727 81.952 63.4451C81.9244 63.4175 81.9089 63.3801 81.9089 63.3411C81.9089 63.3022 81.9244 63.2648 81.952 63.2372C81.9796 63.2096 82.017 63.1942 82.0559 63.1942H189.443C189.462 63.1942 189.481 63.1979 189.499 63.2053C189.517 63.2127 189.533 63.2236 189.547 63.2372C189.561 63.2509 189.571 63.2671 189.579 63.2849C189.586 63.3027 189.59 63.3218 189.59 63.3411C189.59 63.3605 189.586 63.3796 189.579 63.3974C189.571 63.4152 189.561 63.4314 189.547 63.4451C189.533 63.4587 189.517 63.4696 189.499 63.477C189.481 63.4843 189.462 63.4882 189.443 63.4882Z" fill="#FAFAFA"/>
<path opacity="0.5" d="M188.834 70.5511H81.4471C81.4081 70.5511 81.3707 70.5357 81.3431 70.5081C81.3155 70.4805 81.3 70.4431 81.3 70.4041C81.3 70.3651 81.3155 70.3278 81.3431 70.3002C81.3707 70.2726 81.4081 70.2571 81.4471 70.2571H188.834C188.873 70.2571 188.91 70.2726 188.938 70.3002C188.966 70.3278 188.981 70.3651 188.981 70.4041C188.981 70.4431 188.966 70.4805 188.938 70.5081C188.91 70.5357 188.873 70.5511 188.834 70.5511Z" fill="#FAFAFA"/>
<path opacity="0.5" d="M188.218 77.6141H80.8379C80.7989 77.6141 80.7615 77.5986 80.734 77.5711C80.7064 77.5435 80.6909 77.5061 80.6909 77.4671C80.6909 77.4281 80.7064 77.3908 80.734 77.3632C80.7615 77.3356 80.7989 77.3201 80.8379 77.3201H188.218C188.257 77.3201 188.294 77.3356 188.322 77.3632C188.349 77.3908 188.365 77.4281 188.365 77.4671C188.365 77.5061 188.349 77.5435 188.322 77.5711C188.294 77.5986 188.257 77.6141 188.218 77.6141Z" fill="#FAFAFA"/>
<path opacity="0.5" d="M187.609 84.6772H80.222C80.183 84.6772 80.1456 84.6617 80.118 84.6341C80.0904 84.6066 80.075 84.5692 80.075 84.5302C80.075 84.4912 80.0904 84.4538 80.118 84.4262C80.1456 84.3987 80.183 84.3832 80.222 84.3832H187.609C187.648 84.3832 187.685 84.3987 187.713 84.4262C187.74 84.4538 187.756 84.4912 187.756 84.5302C187.756 84.5692 187.74 84.6066 187.713 84.6341C187.685 84.6617 187.648 84.6772 187.609 84.6772Z" fill="#FAFAFA"/>
<path opacity="0.5" d="M187 91.7471H79.6128C79.5738 91.7471 79.5364 91.7316 79.5089 91.7041C79.4813 91.6765 79.4658 91.6391 79.4658 91.6001C79.4658 91.5611 79.4813 91.5237 79.5089 91.4962C79.5364 91.4686 79.5738 91.4531 79.6128 91.4531H187C187.039 91.4531 187.076 91.4686 187.104 91.4962C187.131 91.5237 187.147 91.5611 187.147 91.6001C187.147 91.6391 187.131 91.6765 187.104 91.7041C187.076 91.7316 187.039 91.7471 187 91.7471Z" fill="#FAFAFA"/>
<path opacity="0.5" d="M186.391 98.8031H79.0039C78.965 98.8031 78.9276 98.7877 78.9 98.7601C78.8724 98.7325 78.8569 98.6951 78.8569 98.6561C78.8569 98.6172 78.8724 98.5798 78.9 98.5522C78.9276 98.5246 78.965 98.5092 79.0039 98.5092H186.391C186.43 98.5092 186.467 98.5246 186.495 98.5522C186.522 98.5798 186.538 98.6172 186.538 98.6561C186.538 98.6951 186.522 98.7325 186.495 98.7601C186.467 98.7877 186.43 98.8031 186.391 98.8031Z" fill="#FAFAFA"/>
<path opacity="0.5" d="M185.782 105.866H78.3951C78.3561 105.866 78.3187 105.851 78.2911 105.823C78.2635 105.796 78.248 105.758 78.248 105.719C78.248 105.68 78.2635 105.643 78.2911 105.615C78.3187 105.588 78.3561 105.572 78.3951 105.572H185.782C185.821 105.572 185.858 105.588 185.886 105.615C185.914 105.643 185.929 105.68 185.929 105.719C185.927 105.758 185.911 105.794 185.884 105.821C185.857 105.848 185.82 105.864 185.782 105.866Z" fill="#FAFAFA"/>
<path opacity="0.5" d="M185.166 112.929H77.7999C77.7775 112.934 77.7542 112.934 77.7318 112.929C77.7094 112.923 77.6885 112.913 77.6706 112.899C77.6527 112.884 77.6383 112.866 77.6284 112.845C77.6184 112.824 77.6133 112.802 77.6133 112.779C77.6133 112.756 77.6184 112.733 77.6284 112.712C77.6383 112.691 77.6527 112.673 77.6706 112.659C77.6885 112.644 77.7094 112.634 77.7318 112.629C77.7542 112.623 77.7775 112.623 77.7999 112.628H185.18C185.202 112.623 185.226 112.623 185.248 112.629C185.27 112.634 185.291 112.644 185.309 112.659C185.327 112.673 185.342 112.691 185.352 112.712C185.361 112.733 185.367 112.756 185.367 112.779C185.367 112.802 185.361 112.824 185.352 112.845C185.342 112.866 185.327 112.884 185.309 112.899C185.291 112.913 185.27 112.923 185.248 112.929C185.226 112.934 185.202 112.934 185.18 112.929H185.166Z" fill="#FAFAFA"/>
<path opacity="0.5" d="M184.557 119.992H77.1699C77.1356 119.985 77.1048 119.966 77.0827 119.938C77.0606 119.911 77.0486 119.877 77.0486 119.842C77.0486 119.806 77.0606 119.772 77.0827 119.745C77.1048 119.718 77.1356 119.699 77.1699 119.691H184.557C184.577 119.691 184.597 119.695 184.615 119.703C184.633 119.711 184.65 119.722 184.663 119.737C184.677 119.751 184.688 119.768 184.695 119.787C184.702 119.805 184.705 119.825 184.704 119.845C184.704 119.884 184.688 119.922 184.661 119.949C184.633 119.977 184.596 119.992 184.557 119.992Z" fill="#FAFAFA"/>
<path opacity="0.5" d="M183.948 127.055H76.561C76.5411 127.055 76.5214 127.051 76.5031 127.043C76.4848 127.036 76.4682 127.024 76.4545 127.01C76.4407 126.995 76.4301 126.978 76.4231 126.96C76.4161 126.941 76.413 126.921 76.414 126.901C76.414 126.862 76.4295 126.825 76.457 126.797C76.4846 126.77 76.522 126.754 76.561 126.754H183.948C183.987 126.754 184.024 126.77 184.052 126.797C184.079 126.825 184.095 126.862 184.095 126.901C184.096 126.921 184.093 126.941 184.086 126.96C184.079 126.978 184.068 126.995 184.054 127.01C184.041 127.024 184.024 127.036 184.006 127.043C183.988 127.051 183.968 127.055 183.948 127.055Z" fill="#FAFAFA"/>
<path opacity="0.5" d="M183.339 134.118H75.9519C75.932 134.118 75.9122 134.114 75.8939 134.106C75.8756 134.098 75.8591 134.087 75.8454 134.073C75.8316 134.058 75.8209 134.041 75.814 134.023C75.807 134.004 75.8039 133.984 75.8049 133.964C75.8049 133.925 75.8203 133.888 75.8479 133.86C75.8755 133.833 75.9129 133.817 75.9519 133.817H183.339C183.373 133.825 183.404 133.844 183.426 133.871C183.448 133.898 183.46 133.932 183.46 133.968C183.46 134.003 183.448 134.037 183.426 134.064C183.404 134.092 183.373 134.111 183.339 134.118Z" fill="#FAFAFA"/>
<path opacity="0.5" d="M182.73 141.181H75.343C75.3231 141.181 75.3034 141.177 75.285 141.169C75.2667 141.161 75.2502 141.15 75.2365 141.136C75.2227 141.121 75.212 141.104 75.2051 141.086C75.1981 141.067 75.195 141.047 75.196 141.027C75.196 140.988 75.2115 140.951 75.239 140.923C75.2666 140.896 75.304 140.88 75.343 140.88H182.73C182.764 140.888 182.795 140.907 182.817 140.934C182.839 140.961 182.851 140.995 182.851 141.031C182.851 141.066 182.839 141.1 182.817 141.127C182.795 141.155 182.764 141.174 182.73 141.181Z" fill="#FAFAFA"/>
<path opacity="0.5" d="M182.1 148.244H74.734C74.7115 148.249 74.6883 148.249 74.6659 148.243C74.6435 148.238 74.6226 148.228 74.6047 148.214C74.5868 148.199 74.5724 148.181 74.5624 148.16C74.5525 148.139 74.5474 148.117 74.5474 148.094C74.5474 148.071 74.5525 148.048 74.5624 148.027C74.5724 148.006 74.5868 147.988 74.6047 147.974C74.6226 147.959 74.6435 147.949 74.6659 147.944C74.6883 147.938 74.7115 147.938 74.734 147.943H182.1C182.122 147.938 182.146 147.938 182.168 147.944C182.191 147.949 182.211 147.959 182.229 147.974C182.247 147.988 182.262 148.006 182.272 148.027C182.282 148.048 182.287 148.071 182.287 148.094C182.287 148.117 182.282 148.139 182.272 148.16C182.262 148.181 182.247 148.199 182.229 148.214C182.211 148.228 182.191 148.238 182.168 148.243C182.146 148.249 182.122 148.249 182.1 148.244Z" fill="#FAFAFA"/>
<path opacity="0.5" d="M181.505 155.3H74.118C74.079 155.3 74.0416 155.285 74.014 155.257C73.9864 155.23 73.9709 155.192 73.9709 155.153C73.9709 155.114 73.9864 155.077 74.014 155.049C74.0416 155.022 74.079 155.006 74.118 155.006H181.505C181.544 155.006 181.581 155.022 181.609 155.049C181.636 155.077 181.652 155.114 181.652 155.153C181.652 155.192 181.636 155.23 181.609 155.257C181.581 155.285 181.544 155.3 181.505 155.3Z" fill="#FAFAFA"/>
<path opacity="0.5" d="M180.896 162.363H73.5091C73.4701 162.363 73.4327 162.348 73.4051 162.32C73.3775 162.293 73.3621 162.255 73.3621 162.216C73.3621 162.177 73.3775 162.14 73.4051 162.112C73.4327 162.085 73.4701 162.069 73.5091 162.069H180.896C180.935 162.069 180.972 162.085 181 162.112C181.028 162.14 181.043 162.177 181.043 162.216C181.043 162.255 181.028 162.293 181 162.32C180.972 162.348 180.935 162.363 180.896 162.363Z" fill="#FAFAFA"/>
<path opacity="0.5" d="M180.287 169.447H72.8999C72.8609 169.447 72.8236 169.432 72.796 169.404C72.7684 169.377 72.7529 169.339 72.7529 169.3C72.7529 169.261 72.7684 169.224 72.796 169.196C72.8236 169.169 72.8609 169.153 72.8999 169.153H180.287C180.326 169.153 180.363 169.169 180.391 169.196C180.418 169.224 180.434 169.261 180.434 169.3C180.434 169.339 180.418 169.377 180.391 169.404C180.363 169.432 180.326 169.447 180.287 169.447Z" fill="#FAFAFA"/>
<path opacity="0.5" d="M179.678 176.489H72.291C72.2521 176.489 72.2147 176.474 72.1871 176.446C72.1595 176.419 72.144 176.381 72.144 176.342C72.144 176.303 72.1595 176.266 72.1871 176.238C72.2147 176.211 72.2521 176.195 72.291 176.195H179.678C179.717 176.195 179.754 176.211 179.782 176.238C179.81 176.266 179.825 176.303 179.825 176.342C179.825 176.381 179.81 176.419 179.782 176.446C179.754 176.474 179.717 176.489 179.678 176.489Z" fill="#FAFAFA"/>
<path opacity="0.5" d="M179.062 183.552H71.6819C71.6429 183.552 71.6055 183.537 71.578 183.509C71.5504 183.482 71.5349 183.444 71.5349 183.405C71.5349 183.366 71.5504 183.329 71.578 183.301C71.6055 183.274 71.6429 183.258 71.6819 183.258H179.062C179.101 183.258 179.138 183.274 179.166 183.301C179.193 183.329 179.209 183.366 179.209 183.405C179.209 183.444 179.193 183.482 179.166 183.509C179.138 183.537 179.101 183.552 179.062 183.552Z" fill="#FAFAFA"/>
<path opacity="0.5" d="M178.453 190.615H71.066C71.027 190.615 70.9896 190.6 70.962 190.572C70.9344 190.545 70.9189 190.507 70.9189 190.468C70.9189 190.429 70.9344 190.392 70.962 190.364C70.9896 190.337 71.027 190.321 71.066 190.321H178.453C178.492 190.321 178.529 190.337 178.557 190.364C178.584 190.392 178.6 190.429 178.6 190.468C178.6 190.507 178.584 190.545 178.557 190.572C178.529 190.6 178.492 190.615 178.453 190.615Z" fill="#FAFAFA"/>
</g>
<path d="M166.98 196.992C166.96 196.989 166.942 196.978 166.929 196.963C166.917 196.948 166.91 196.928 166.91 196.908L180.665 37.8051C180.665 37.7631 180.7 37.7421 180.742 37.7351C180.762 37.7384 180.78 37.7488 180.792 37.7642C180.805 37.7796 180.812 37.7991 180.812 37.8191L167.05 196.922C167.05 196.941 167.043 196.958 167.029 196.972C167.016 196.985 166.998 196.992 166.98 196.992Z" fill="#FFB347"/>
<path opacity="0.3" d="M166.98 196.992C166.96 196.989 166.942 196.978 166.929 196.963C166.917 196.948 166.91 196.928 166.91 196.908L180.665 37.8051C180.665 37.7631 180.7 37.7421 180.742 37.7351C180.762 37.7384 180.78 37.7488 180.792 37.7642C180.805 37.7796 180.812 37.7991 180.812 37.8191L167.05 196.922C167.05 196.941 167.043 196.958 167.029 196.972C167.016 196.985 166.998 196.992 166.98 196.992Z" fill="black"/>
<path d="M178.054 15.0411H170.06C170.697 20.4599 170.781 25.9293 170.312 31.3651L169.108 45.3301H177.102L178.306 31.3651C178.775 25.9293 178.691 20.4599 178.054 15.0411Z" fill="#FFB347"/>
<path opacity="0.3" d="M178.054 15.0411H170.06C170.697 20.4599 170.781 25.9293 170.312 31.3651L169.108 45.3301H177.102L178.306 31.3651C178.775 25.9293 178.691 20.4599 178.054 15.0411Z" fill="black"/>
<path d="M108.159 48.1161H108.103C108.069 48.107 108.039 48.087 108.018 48.0592C107.996 48.0314 107.984 47.9973 107.984 47.9621C107.968 47.7733 107.914 47.5898 107.825 47.4225C107.736 47.2553 107.614 47.1078 107.466 46.9891C107.181 46.7715 106.855 46.6124 106.508 46.5211C106.16 46.4298 105.799 46.4081 105.443 46.4571C104.88 46.5546 104.327 46.7046 103.791 46.9051C103.199 47.1316 102.584 47.2912 101.957 47.3811C100.82 47.4913 99.6834 47.1578 98.786 46.4501C98.4604 46.9491 97.9961 47.3421 97.4502 47.5809C96.9043 47.8196 96.3005 47.8938 95.713 47.7941C95.3041 47.7102 94.917 47.5424 94.576 47.3015C94.2351 47.0605 93.9477 46.7516 93.732 46.3941C93.5864 46.1695 93.3619 46.0074 93.1028 45.9401C92.8436 45.8727 92.5687 45.9048 92.332 46.0301C91.4204 46.4906 90.4859 46.9041 89.532 47.2691C89.5089 47.2794 89.4839 47.2846 89.4585 47.2846C89.4332 47.2846 89.4082 47.2794 89.385 47.2691C89.3625 47.2558 89.3433 47.2375 89.3287 47.2157C89.3142 47.1939 89.3047 47.1691 89.301 47.1431C89.2718 46.9107 89.2718 46.6756 89.301 46.4431C89.3137 46.3505 89.3023 46.2561 89.268 46.169C89.2337 46.082 89.1776 46.0053 89.105 45.9461C89.0426 45.8946 88.9677 45.8603 88.8879 45.8468C88.808 45.8333 88.726 45.841 88.65 45.8691C88.267 45.9929 87.9074 46.1798 87.586 46.4221L87.432 46.5411C86.732 47.0871 86.1301 47.4931 85.7241 47.4371C85.607 47.4193 85.5015 47.3565 85.43 47.2621C85.2833 47.0315 85.2261 46.7551 85.269 46.4851C85.342 45.8978 85.5953 45.3475 85.9939 44.91C86.3926 44.4725 86.917 44.1693 87.495 44.0421C87.5395 44.0338 87.5855 44.0429 87.6233 44.0677C87.6612 44.0925 87.688 44.131 87.698 44.1751C87.7031 44.1982 87.7035 44.222 87.6992 44.2451C87.6948 44.2683 87.6858 44.2904 87.6728 44.31C87.6597 44.3296 87.6428 44.3463 87.6231 44.3593C87.6034 44.3722 87.5812 44.381 87.558 44.3851C87.0534 44.4961 86.5957 44.7611 86.2483 45.1436C85.9009 45.5261 85.681 46.0072 85.619 46.5201C85.5867 46.7027 85.6188 46.8908 85.71 47.0521C85.7169 47.0627 85.7262 47.0714 85.7372 47.0775C85.7482 47.0836 85.7605 47.0869 85.773 47.0871C86.067 47.1291 86.788 46.5901 87.222 46.2611L87.376 46.1421C87.7287 45.8789 88.1209 45.6734 88.538 45.5331C88.6697 45.4872 88.8111 45.4759 88.9484 45.5004C89.0857 45.5249 89.2144 45.5844 89.3221 45.6731C89.4418 45.7675 89.535 45.8912 89.5927 46.0323C89.6503 46.1734 89.6704 46.327 89.651 46.4781C89.6406 46.6039 89.6406 46.7304 89.651 46.8561C90.5122 46.5189 91.3556 46.138 92.178 45.7151C92.4945 45.5423 92.8655 45.4982 93.2137 45.5921C93.5619 45.686 93.8604 45.9106 94.0471 46.2191C94.2772 46.6257 94.613 46.9624 95.0189 47.1936C95.4247 47.4249 95.8856 47.5421 96.3527 47.5327C96.8197 47.5234 97.2756 47.3879 97.6719 47.1407C98.0683 46.8934 98.3903 46.5435 98.604 46.1281C98.615 46.1045 98.6316 46.0838 98.6523 46.068C98.673 46.0521 98.6973 46.0415 98.723 46.0371C98.7491 46.0331 98.7758 46.0347 98.8012 46.042C98.8266 46.0492 98.8501 46.0619 98.8701 46.0791C99.2869 46.4436 99.774 46.7186 100.301 46.8872C100.829 47.0557 101.385 47.1143 101.936 47.0591C102.536 46.9704 103.125 46.8178 103.693 46.6041C104.249 46.3948 104.823 46.2378 105.408 46.1351C106.224 46.0285 107.049 46.2472 107.704 46.7441C107.976 46.9596 108.176 47.2525 108.278 47.5841C109.391 46.3241 110.721 45.0711 112.387 45.1411C112.494 45.1355 112.601 45.1526 112.701 45.1912C112.802 45.2298 112.892 45.2891 112.968 45.3651C113.03 45.4589 113.072 45.5645 113.092 45.6754C113.111 45.7862 113.107 45.8999 113.08 46.0091L112.884 47.4861C113.742 47.0046 114.497 46.3575 115.103 45.5821C115.378 45.2096 115.712 44.8835 116.09 44.6161C116.265 44.4693 116.484 44.3853 116.713 44.3777C116.941 44.3701 117.166 44.4393 117.35 44.5741C117.59 44.7956 117.754 45.0871 117.819 45.4071C117.819 45.4981 117.875 45.5891 117.91 45.6731C117.984 45.8738 118.132 46.0388 118.323 46.1351C118.358 46.1524 118.396 46.1614 118.435 46.1614C118.474 46.1614 118.512 46.1524 118.547 46.1351C118.589 46.116 118.637 46.114 118.68 46.1298C118.723 46.1455 118.758 46.1776 118.778 46.2191C118.798 46.262 118.8 46.3107 118.784 46.3551C118.768 46.3994 118.736 46.436 118.694 46.4571C118.615 46.4918 118.529 46.5097 118.442 46.5097C118.355 46.5097 118.27 46.4918 118.19 46.4571C117.912 46.3241 117.696 46.0882 117.588 45.7991C117.546 45.7081 117.518 45.6101 117.483 45.5121C117.441 45.2483 117.319 45.0038 117.133 44.8121C117.009 44.7279 116.861 44.6858 116.711 44.6921C116.561 44.6984 116.417 44.7528 116.3 44.8471C115.953 45.0927 115.648 45.393 115.397 45.7361C114.691 46.6421 113.792 47.3787 112.765 47.8921C112.738 47.9075 112.708 47.9156 112.678 47.9156C112.647 47.9156 112.617 47.9075 112.59 47.8921C112.563 47.8741 112.541 47.8488 112.528 47.8191C112.514 47.7894 112.509 47.7565 112.513 47.7241L112.751 45.9111C112.751 45.7711 112.786 45.6171 112.716 45.5401C112.646 45.4631 112.562 45.4491 112.401 45.4421H112.296C110.7 45.4421 109.412 46.7861 108.327 48.0531C108.306 48.0767 108.28 48.0949 108.251 48.1058C108.222 48.1168 108.19 48.1204 108.159 48.1161Z" fill="#263238"/>
<path d="M148.052 48.0952C147.714 48.055 147.391 47.9334 147.111 47.7407C146.83 47.5481 146.601 47.2901 146.442 46.9892C146.296 46.7357 146.165 46.474 146.05 46.2052C145.917 45.8892 145.758 45.5848 145.574 45.2952C144.793 45.9758 143.881 46.4882 142.893 46.8001C142.868 46.8156 142.839 46.8238 142.809 46.8238C142.779 46.8238 142.75 46.8156 142.725 46.8001C142.701 46.7801 142.683 46.7538 142.673 46.7241C142.663 46.6944 142.662 46.6626 142.669 46.6322C142.725 46.3646 142.76 46.0931 142.774 45.8202C142.786 45.594 142.741 45.3684 142.643 45.1641C142.546 44.9598 142.398 44.7834 142.214 44.6512C142.036 44.5196 141.828 44.4357 141.609 44.4075C141.389 44.3793 141.166 44.4078 140.961 44.4902L138.945 45.2672C138.623 45.3862 137.65 45.7642 137.125 45.1692C137.063 45.092 137.007 45.0101 136.957 44.9242C136.903 44.8198 136.824 44.7307 136.726 44.6652C136.565 44.5882 136.348 44.7002 136.152 44.8262C134.871 45.6172 133.555 46.3802 132.246 47.1012C131.79 47.4029 131.265 47.5857 130.72 47.6331C130.463 47.6309 130.209 47.5714 129.978 47.4587C129.747 47.3461 129.543 47.1833 129.383 46.9822C129.131 46.6999 128.976 46.344 128.942 45.9672C128.189 46.6867 127.214 47.1286 126.177 47.2202C125.896 47.2146 125.623 47.1189 125.4 46.9472C125.195 46.7741 125.052 46.5399 124.99 46.2791C124.928 46.0183 124.952 45.7446 125.057 45.4981C125.257 45.0592 125.551 44.6696 125.918 44.3572C125.933 44.3371 125.952 44.3205 125.974 44.3085C125.996 44.2965 126.021 44.2894 126.046 44.2876C126.071 44.2858 126.096 44.2894 126.119 44.2982C126.143 44.307 126.164 44.3207 126.182 44.3384C126.2 44.3561 126.213 44.3775 126.222 44.401C126.231 44.4244 126.234 44.4496 126.233 44.4746C126.231 44.4996 126.224 44.5239 126.212 44.5459C126.2 44.5679 126.183 44.5871 126.163 44.6021C125.835 44.8843 125.57 45.2326 125.386 45.6242C125.311 45.7981 125.291 45.9911 125.33 46.1766C125.369 46.3622 125.464 46.5311 125.603 46.6601C125.78 46.7744 125.988 46.8285 126.198 46.8142C127.22 46.8142 128.123 46.1142 129.04 45.4142C129.069 45.3954 129.103 45.3855 129.138 45.3855C129.173 45.3855 129.207 45.3954 129.236 45.4142C129.268 45.4314 129.293 45.4585 129.308 45.4912C129.323 45.524 129.328 45.5608 129.32 45.5962C129.292 45.7993 129.309 46.0061 129.369 46.2021C129.429 46.398 129.532 46.5783 129.67 46.7302C129.797 46.8885 129.956 47.0174 130.137 47.108C130.319 47.1987 130.517 47.2489 130.72 47.2552C131.219 47.211 131.7 47.0451 132.12 46.7722C133.422 46.0722 134.731 45.2882 136.005 44.4972C136.131 44.3935 136.281 44.3231 136.441 44.2925C136.601 44.2619 136.767 44.2721 136.922 44.3222C137.083 44.4119 137.212 44.5487 137.293 44.7142C137.332 44.781 137.376 44.8442 137.426 44.9032C137.678 45.1902 138.126 45.1902 138.861 44.9032L140.877 44.1262C141.138 44.026 141.421 43.9928 141.698 44.0294C141.976 44.0661 142.24 44.1715 142.466 44.3362C142.696 44.5031 142.881 44.7252 143.003 44.982C143.126 45.2388 143.182 45.5221 143.166 45.8061C143.155 45.9962 143.134 46.1854 143.103 46.3731C143.998 46.0489 144.821 45.5518 145.525 44.9101C145.562 44.8778 145.609 44.8603 145.658 44.8612C145.682 44.8633 145.705 44.8706 145.725 44.8828C145.746 44.8949 145.764 44.9114 145.777 44.9311C146.035 45.2779 146.247 45.6567 146.407 46.0581C146.526 46.3171 146.645 46.5762 146.785 46.8142C146.919 47.1005 147.137 47.3397 147.409 47.5008C147.681 47.6619 147.995 47.7372 148.311 47.7172C148.773 47.6122 149.074 47.1922 149.396 46.7372C149.672 46.2144 150.134 45.8145 150.691 45.6172C151.268 45.5605 151.845 45.7229 152.308 46.0722C152.49 46.1702 152.672 46.2752 152.854 46.3592C153.918 46.8282 155.08 46.5482 156.305 46.2472C157.247 45.9557 158.234 45.8417 159.217 45.9112C159.241 45.9128 159.263 45.9193 159.284 45.9303C159.305 45.9413 159.323 45.9565 159.338 45.975C159.352 45.9934 159.363 46.0147 159.368 46.0375C159.374 46.0603 159.375 46.084 159.371 46.1072C159.364 46.1524 159.34 46.1932 159.303 46.2207C159.266 46.2482 159.22 46.2602 159.175 46.2541C158.229 46.1952 157.28 46.3091 156.375 46.5902C155.143 46.8912 153.876 47.1992 152.7 46.6742C152.503 46.585 152.311 46.4845 152.126 46.3731C151.726 46.0679 151.228 45.9208 150.726 45.9601C150.257 46.0651 149.956 46.4922 149.634 46.9402C149.361 47.4625 148.901 47.8625 148.346 48.0601C148.25 48.0822 148.151 48.0939 148.052 48.0952Z" fill="#263238"/>
<path d="M89.595 55.0182C89.5629 55.0268 89.529 55.0268 89.497 55.0182C89.4723 54.9993 89.4524 54.9749 89.4391 54.9469C89.4257 54.9189 89.4191 54.8882 89.42 54.8572C89.4558 54.4912 89.5381 54.1313 89.6649 53.7862C89.1335 54.1754 88.5254 54.4471 87.881 54.5835C87.2365 54.7199 86.5705 54.7177 85.9269 54.5772C85.6708 54.5417 85.4289 54.4377 85.2269 54.2762C85.0252 54.0483 84.9138 53.7545 84.9138 53.4502C84.9138 53.1458 85.0252 52.852 85.2269 52.6242C85.6055 52.2123 86.0897 51.912 86.6269 51.7562C86.6706 51.7395 86.7191 51.7408 86.7617 51.7598C86.8044 51.7788 86.8377 51.814 86.8544 51.8577C86.8712 51.9013 86.8698 51.9498 86.8508 51.9924C86.8318 52.0351 86.7966 52.0685 86.7529 52.0852C86.2807 52.2239 85.8533 52.4846 85.5139 52.8412C85.3748 53.0055 85.2985 53.2138 85.2985 53.4292C85.2985 53.6445 85.3748 53.8528 85.5139 54.0172C85.6697 54.1294 85.8494 54.2037 86.0389 54.2342C86.7814 54.3896 87.5516 54.3487 88.2735 54.1154C88.9953 53.8822 89.6438 53.4647 90.1549 52.9042C90.1873 52.8741 90.2298 52.8575 90.274 52.8575C90.3181 52.8575 90.3606 52.8741 90.393 52.9042C90.4292 52.9308 90.4538 52.9704 90.4616 53.0148C90.4695 53.0591 90.4599 53.1047 90.4349 53.1422C90.1429 53.5745 89.945 54.0634 89.8539 54.5772L94.418 52.1692C94.4549 52.149 94.4979 52.1429 94.5391 52.1519C94.5802 52.1609 94.6168 52.1844 94.6419 52.2182C94.6669 52.2502 94.6805 52.2896 94.6805 52.3302C94.6805 52.3708 94.6669 52.4102 94.6419 52.4422C94.6124 52.4762 94.5929 52.5178 94.5855 52.5623C94.5781 52.6067 94.5831 52.6524 94.5999 52.6942C94.6273 52.7725 94.6735 52.8429 94.7346 52.899C94.7956 52.9552 94.8696 52.9954 94.9499 53.0162C95.2975 53.0208 95.6343 52.8961 95.895 52.6662L95.9439 52.6242C96.2499 52.3571 96.6268 52.1844 97.0289 52.1272C97.2841 52.1283 97.5364 52.1806 97.7709 52.2812C100.064 53.0557 102.496 53.3302 104.904 53.0862C105.275 53.0442 105.653 52.9952 106.024 52.9392C107.457 52.6258 108.945 52.657 110.364 53.0302C110.386 53.0371 110.407 53.0486 110.424 53.064C110.442 53.0793 110.456 53.098 110.466 53.1191C110.475 53.1402 110.481 53.163 110.481 53.1863C110.482 53.2095 110.478 53.2326 110.469 53.2542C110.463 53.2761 110.452 53.2965 110.437 53.314C110.423 53.3314 110.405 53.3456 110.384 53.3555C110.364 53.3654 110.341 53.3709 110.318 53.3715C110.296 53.3722 110.273 53.3679 110.252 53.3592C108.876 53.0102 107.438 52.9862 106.052 53.2892C105.674 53.3382 105.296 53.3942 104.918 53.4292C102.456 53.661 99.9732 53.3602 97.6379 52.5472C97.3866 52.4168 97.0986 52.3748 96.8204 52.4282C96.5423 52.4815 96.2903 52.627 96.1049 52.8412L96.049 52.8762C95.8851 53.0227 95.6935 53.1348 95.4854 53.2058C95.2774 53.2767 95.0572 53.3051 94.8379 53.2892C94.6955 53.2574 94.5637 53.189 94.4557 53.0908C94.3477 52.9926 94.2671 52.868 94.222 52.7292C94.2038 52.6868 94.192 52.642 94.1869 52.5962L89.6999 54.9972C89.6677 55.0141 89.6312 55.0214 89.595 55.0182Z" fill="#263238"/>
<path d="M117.861 54.5841C117.827 54.5949 117.79 54.5949 117.756 54.5841C117.735 54.5675 117.717 54.5463 117.705 54.522C117.693 54.4978 117.687 54.4712 117.686 54.4441V53.4011C117.686 53.3547 117.704 53.3102 117.737 53.2774C117.77 53.2446 117.815 53.2261 117.861 53.2261C117.906 53.2261 117.95 53.2436 117.982 53.2749C118.015 53.3062 118.034 53.3489 118.036 53.3941V54.2061C119.465 53.7699 120.758 52.9718 121.788 51.8891C121.802 51.8712 121.82 51.8568 121.841 51.8471C121.862 51.8374 121.884 51.8326 121.907 51.8331C121.953 51.8377 121.996 51.8546 122.033 51.8821C122.211 52.0913 122.318 52.3507 122.341 52.6241C122.39 52.8761 122.432 53.0931 122.593 53.1841C122.732 53.2286 122.881 53.2286 123.02 53.1841C124.017 53.0575 124.989 52.7814 125.904 52.3651C126.723 51.9941 127.836 51.4901 128.613 52.1341L128.753 52.2671C128.82 52.3423 128.901 52.404 128.991 52.4491C129.099 52.4876 129.213 52.5065 129.327 52.5051C129.399 52.4982 129.472 52.4982 129.544 52.5051C129.79 52.5516 130.027 52.6391 130.244 52.7641C130.359 52.8261 130.478 52.8799 130.601 52.9251C130.888 53.0371 131.259 53.0021 131.371 52.7781C131.38 52.7569 131.393 52.7378 131.41 52.7219C131.427 52.706 131.447 52.6938 131.468 52.6859C131.49 52.678 131.513 52.6747 131.536 52.6761C131.559 52.6775 131.581 52.6837 131.602 52.6941C131.623 52.7039 131.643 52.7178 131.659 52.7352C131.675 52.7526 131.687 52.773 131.695 52.7952C131.703 52.8175 131.706 52.841 131.704 52.8646C131.703 52.8881 131.697 52.9111 131.686 52.9321C131.558 53.1216 131.365 53.2584 131.144 53.3175C130.923 53.3767 130.688 53.3542 130.482 53.2541C130.346 53.203 130.213 53.1446 130.083 53.0791C129.899 52.9692 129.698 52.8911 129.488 52.8481H129.299C129.139 52.8497 128.98 52.8212 128.83 52.7641C128.703 52.6991 128.589 52.6113 128.494 52.5051L128.375 52.3931C127.766 51.8961 126.807 52.3301 126.037 52.6801C125.09 53.1084 124.085 53.3939 123.055 53.5271C122.838 53.5699 122.614 53.5455 122.411 53.4571C122.282 53.3651 122.177 53.2445 122.103 53.1049C122.029 52.9652 121.988 52.8102 121.984 52.6521C121.962 52.5137 121.927 52.3777 121.879 52.2461C120.776 53.3514 119.406 54.1542 117.903 54.5771L117.861 54.5841Z" fill="#263238"/>
<path d="M140.709 54.0801C140.649 54.0868 140.587 54.0868 140.527 54.0801C140.417 54.0545 140.314 54.0047 140.226 53.9345C140.138 53.8643 140.066 53.7754 140.016 53.6741C139.976 53.5986 139.955 53.5145 139.955 53.4291C139.955 53.3437 139.976 53.2596 140.016 53.1841C140.026 53.1626 140.04 53.1433 140.057 53.1275C140.075 53.1117 140.095 53.0998 140.118 53.0925C140.14 53.0852 140.164 53.0828 140.187 53.0853C140.211 53.0878 140.234 53.0953 140.254 53.1071C140.274 53.1174 140.292 53.1316 140.306 53.1489C140.321 53.1662 140.331 53.1863 140.338 53.2078C140.344 53.2293 140.347 53.252 140.344 53.2744C140.342 53.2968 140.335 53.3185 140.324 53.3381C140.31 53.3676 140.302 53.3999 140.302 53.4326C140.302 53.4654 140.31 53.4977 140.324 53.5271C140.351 53.5787 140.389 53.624 140.435 53.6601C140.481 53.6963 140.534 53.7225 140.59 53.7371C140.838 53.7464 141.083 53.6779 141.29 53.5411C142.158 53.0764 142.935 52.46 143.586 51.7211C143.612 51.6943 143.645 51.6759 143.681 51.6684C143.717 51.6609 143.755 51.6646 143.789 51.6791C143.924 51.7683 144.035 51.8901 144.111 52.0332C144.186 52.1763 144.225 52.3362 144.223 52.4981C144.241 52.6592 144.281 52.817 144.342 52.9671C144.413 53.099 144.534 53.1972 144.678 53.2401C145.166 53.2985 145.659 53.1899 146.078 52.9321L148.598 51.5671C148.819 51.42 149.083 51.3533 149.347 51.3781C149.557 51.447 149.742 51.576 149.879 51.7491L149.991 51.8611C150.81 52.6451 152.154 52.1971 153.337 51.8051L153.561 51.7351C155.764 51.0281 158.134 51.0281 160.337 51.7351C160.36 51.7407 160.381 51.7509 160.399 51.7651C160.418 51.7792 160.433 51.7971 160.444 51.8175C160.455 51.8379 160.462 51.8604 160.464 51.8836C160.466 51.9067 160.463 51.9301 160.456 51.9521C160.44 51.9959 160.408 52.0319 160.366 52.0528C160.325 52.0736 160.277 52.0777 160.232 52.0641C158.099 51.3815 155.806 51.3815 153.673 52.0641L153.449 52.1411C152.231 52.5401 150.726 53.0441 149.746 52.1411L149.627 52.0151C149.533 51.8969 149.41 51.8053 149.27 51.7491C149.09 51.746 148.914 51.7999 148.766 51.9031L146.246 53.2681C145.739 53.5696 145.143 53.6882 144.559 53.6041C144.442 53.5703 144.334 53.5132 144.24 53.4362C144.146 53.3592 144.069 53.2639 144.013 53.1561C143.931 52.9744 143.879 52.7805 143.859 52.5821C143.846 52.4155 143.798 52.2534 143.719 52.1061C143.062 52.8223 142.288 53.4212 141.43 53.8771C141.209 54.0005 140.962 54.0701 140.709 54.0801Z" fill="#263238"/>
<path d="M103.469 62.8021C103.444 62.8087 103.417 62.8087 103.392 62.8021C103.359 62.7841 103.331 62.7565 103.314 62.7228C103.296 62.689 103.29 62.6508 103.294 62.6131C103.445 61.6037 103.445 60.5776 103.294 59.5681C102.853 60.042 102.316 60.4167 101.719 60.6671C101.344 60.8236 100.93 60.8571 100.535 60.7627C100.14 60.6684 99.7846 60.4511 99.521 60.1421C99.4774 60.0842 99.4376 60.0234 99.402 59.9601C99.206 59.6661 99.059 59.4561 98.884 59.5121C98.8024 59.5519 98.7324 59.6122 98.681 59.6871L96.63 62.0461C96.5997 62.0718 96.5613 62.0859 96.5215 62.0859C96.4818 62.0859 96.4434 62.0718 96.413 62.0461C96.3788 62.0261 96.3521 61.9954 96.337 61.9587C96.3218 61.9221 96.319 61.8815 96.329 61.8431L96.721 60.5341C95.2888 60.568 93.8561 60.486 92.437 60.2891C92.405 60.2842 92.3749 60.2705 92.3502 60.2495C92.3254 60.2285 92.3071 60.201 92.2971 60.1701L92.087 59.5681C91.4044 60.2203 90.5838 60.7108 89.686 61.0031C89.207 61.1487 88.6957 61.1507 88.2155 61.0089C87.7353 60.8671 87.3072 60.5876 86.984 60.2051C86.7002 60.4508 86.3585 60.6202 85.9911 60.6973C85.6237 60.7745 85.2427 60.7569 84.884 60.6461C84.846 60.6323 84.8137 60.6063 84.7921 60.572C84.7706 60.5378 84.7611 60.4974 84.765 60.4571C84.8141 60.1327 84.9756 59.8359 85.2212 59.6184C85.4669 59.4009 85.7811 59.2766 86.109 59.2671C86.1326 59.265 86.1563 59.268 86.1785 59.2761C86.2007 59.2841 86.2209 59.2969 86.2376 59.3136C86.2543 59.3303 86.2671 59.3505 86.2751 59.3727C86.2831 59.3949 86.2862 59.4186 86.284 59.4421C86.284 59.4886 86.2656 59.5331 86.2328 59.5659C86.2 59.5987 86.1555 59.6171 86.109 59.6171C85.8925 59.6309 85.685 59.7088 85.513 59.8409C85.3409 59.9731 85.2121 60.1535 85.1431 60.3591C85.4581 60.4295 85.7861 60.4161 86.0943 60.3203C86.4026 60.2245 86.6804 60.0497 86.9 59.8131C86.9181 59.7925 86.941 59.7766 86.9666 59.7669C86.9922 59.7571 87.0198 59.7538 87.0471 59.7571C87.0747 59.7611 87.1011 59.7713 87.1242 59.7871C87.1472 59.8029 87.1663 59.8238 87.18 59.8481C87.4462 60.2241 87.8248 60.5059 88.2612 60.653C88.6977 60.8002 89.1696 60.8052 89.609 60.6671C90.5314 60.3434 91.3722 59.8226 92.073 59.1411C92.0977 59.1277 92.1254 59.1206 92.1536 59.1206C92.1817 59.1206 92.2094 59.1277 92.234 59.1411C92.2615 59.1487 92.2867 59.1629 92.3074 59.1824C92.3282 59.2019 92.3438 59.2262 92.353 59.2531L92.605 59.9951C94.0505 60.1852 95.5087 60.2602 96.9661 60.2191C96.9927 60.2178 97.0193 60.2228 97.0437 60.2337C97.068 60.2447 97.0894 60.2613 97.106 60.2821C97.1195 60.3068 97.1266 60.3345 97.1266 60.3626C97.1266 60.3908 97.1195 60.4184 97.106 60.4431L96.882 61.2061L98.401 59.4561C98.4962 59.333 98.6216 59.2365 98.765 59.1761C99.199 59.0361 99.465 59.4631 99.682 59.7711C99.7153 59.8298 99.7527 59.8859 99.794 59.9391C100.013 60.1855 100.304 60.3567 100.626 60.4283C100.947 60.5 101.283 60.4684 101.586 60.3381C102.232 60.0429 102.807 59.6133 103.273 59.0781C103.297 59.0577 103.325 59.0432 103.355 59.0359C103.386 59.0286 103.418 59.0287 103.448 59.0361C103.479 59.0462 103.506 59.0645 103.527 59.0893C103.548 59.114 103.562 59.1441 103.567 59.1761C103.741 60.1462 103.778 61.1357 103.679 62.1161L105.205 60.4361C105.544 59.9967 105.997 59.658 106.514 59.4561C107.163 59.3383 107.833 59.4316 108.425 59.7221C108.96 59.9961 109.573 60.0777 110.161 59.9531C110.205 59.9374 110.253 59.9396 110.295 59.9593C110.337 59.979 110.369 60.0145 110.385 60.0581C110.399 60.1018 110.396 60.1492 110.376 60.1907C110.357 60.2323 110.323 60.2649 110.28 60.2821C109.615 60.4402 108.916 60.3584 108.306 60.0511C108.08 59.8999 107.826 59.7958 107.559 59.7452C107.292 59.6946 107.018 59.6985 106.752 59.7567C106.487 59.8149 106.236 59.9262 106.014 60.0838C105.793 60.2415 105.606 60.4423 105.464 60.6741L103.567 62.7741C103.538 62.7923 103.504 62.802 103.469 62.8021Z" fill="#263238"/>
<path d="M123.384 61.1361H123.195C122.712 61.0171 122.558 60.5411 122.425 60.1211C122.363 59.8669 122.249 59.6284 122.089 59.4211C120.947 60.3246 119.534 60.8177 118.078 60.8211C118.032 60.8194 117.989 60.8004 117.956 60.768C117.924 60.7355 117.905 60.692 117.903 60.6461C117.903 60.5997 117.922 60.5552 117.954 60.5224C117.987 60.4896 118.032 60.4711 118.078 60.4711C119.494 60.469 120.865 59.974 121.956 59.0711C121.986 59.0484 122.023 59.0361 122.061 59.0361C122.099 59.0361 122.136 59.0484 122.166 59.0711C122.462 59.3296 122.664 59.6793 122.74 60.0651C122.88 60.5061 122.985 60.7651 123.258 60.8421C123.422 60.8675 123.591 60.8432 123.741 60.7721C124.392 60.5539 125.005 60.2324 125.554 59.8201C125.707 59.6878 125.886 59.5878 126.079 59.5261C126.414 59.4722 126.757 59.5419 127.045 59.7221L127.213 59.7991C128.214 60.2401 129.313 60.0021 130.468 59.7571C131.487 59.4474 132.565 59.3898 133.611 59.5891C133.656 59.6022 133.694 59.632 133.717 59.6724C133.741 59.7128 133.748 59.7607 133.737 59.8061C133.731 59.8282 133.72 59.8488 133.706 59.8667C133.691 59.8846 133.673 59.8995 133.653 59.9106C133.633 59.9216 133.611 59.9286 133.588 59.9311C133.565 59.9336 133.542 59.9316 133.52 59.9251C132.526 59.7471 131.504 59.8071 130.538 60.1001C129.376 60.3451 128.172 60.6041 127.073 60.1001L126.898 60.0231C126.691 59.8882 126.445 59.8243 126.198 59.8411C126.059 59.8875 125.93 59.9613 125.82 60.0581C125.233 60.4982 124.581 60.8453 123.888 61.0871C123.723 61.1279 123.554 61.1444 123.384 61.1361Z" fill="#263238"/>
<path d="M83.715 76.0461C83.4439 76.0464 83.1753 75.9941 82.924 75.8921C82.6828 75.8026 82.4783 75.6351 82.343 75.4161C81.958 74.7161 82.658 74.0161 83.372 73.5821C83.3923 73.5711 83.4145 73.5641 83.4374 73.5616C83.4603 73.5591 83.4835 73.5612 83.5056 73.5677C83.5277 73.5742 83.5483 73.585 83.5662 73.5995C83.5842 73.614 83.5991 73.6319 83.61 73.6521C83.633 73.6921 83.6393 73.7395 83.6275 73.7841C83.6157 73.8287 83.5868 73.8668 83.547 73.8901C83.078 74.1561 82.371 74.7371 82.651 75.2481C82.7494 75.3936 82.8917 75.504 83.057 75.5631C83.799 75.8781 84.751 75.6191 85.857 74.8071C86.6421 74.2411 87.3732 73.6037 88.041 72.9031C88.0762 72.8676 88.124 72.8475 88.174 72.8471C88.1984 72.8479 88.2222 72.8539 88.244 72.8648C88.2657 72.8757 88.2848 72.8911 88.3 72.9101C88.4867 73.1977 88.5545 73.5466 88.489 73.8831C88.4412 74.124 88.4862 74.3741 88.615 74.5831C88.7225 74.6618 88.8479 74.7126 88.9798 74.7309C89.1118 74.7493 89.2462 74.7346 89.371 74.6881C90.4246 74.4178 91.4254 73.973 92.332 73.3721C92.724 73.1341 93.13 72.8961 93.543 72.6721C93.6633 72.5972 93.8005 72.5538 93.942 72.5461C94.39 72.5461 94.523 72.9801 94.642 73.3231C94.6848 73.5443 94.7863 73.7498 94.936 73.9181C95.132 74.0791 95.391 73.9881 95.79 73.8341C96.0239 73.7231 96.2747 73.6521 96.532 73.6241C96.9239 73.6355 97.3037 73.7622 97.624 73.9881L97.848 74.1141C98.177 74.2821 98.646 74.3941 98.891 74.1141C98.9238 74.0821 98.9677 74.0641 99.0135 74.0641C99.0593 74.0641 99.1033 74.0821 99.136 74.1141C99.1685 74.148 99.1867 74.1932 99.1867 74.2401C99.1867 74.2871 99.1685 74.3322 99.136 74.3661C98.9277 74.5239 98.675 74.6122 98.4137 74.6185C98.1524 74.6248 97.8957 74.5488 97.68 74.4011L97.442 74.2681C97.1805 74.0781 96.869 73.9686 96.546 73.9531C96.3281 73.9821 96.1158 74.0434 95.916 74.1351C95.524 74.2891 95.083 74.4711 94.705 74.1351C94.4978 73.9233 94.3567 73.6558 94.299 73.3651C94.194 73.0011 94.124 72.8471 93.956 72.8401C93.8686 72.8517 93.7848 72.8828 93.711 72.9311C93.312 73.1341 92.913 73.3721 92.521 73.6311C91.5809 74.256 90.542 74.7175 89.448 74.9961C89.2648 75.055 89.0695 75.066 88.8808 75.028C88.6921 74.99 88.5162 74.9044 88.37 74.7791C88.2669 74.6389 88.1944 74.4786 88.157 74.3086C88.1196 74.1386 88.1183 73.9627 88.153 73.7921C88.1817 73.6136 88.1817 73.4317 88.153 73.2531C87.5032 73.9005 86.8008 74.4928 86.053 75.0241C85.3985 75.599 84.5815 75.9562 83.715 76.0461Z" fill="#263238"/>
<path d="M106.892 76.0811C106.626 76.0884 106.361 76.0307 106.122 75.9132C105.901 75.7927 105.72 75.6094 105.603 75.3864C105.486 75.1634 105.438 74.9107 105.464 74.6601C105.472 74.4878 105.533 74.3222 105.64 74.1866C105.747 74.051 105.893 73.9522 106.059 73.9041C106.081 73.8978 106.103 73.8959 106.126 73.8984C106.148 73.901 106.17 73.9081 106.189 73.9192C106.209 73.9303 106.226 73.9452 106.24 73.9631C106.253 73.9809 106.263 74.0013 106.269 74.0231C106.276 74.0452 106.278 74.0683 106.275 74.0912C106.273 74.114 106.266 74.1361 106.255 74.1563C106.243 74.1764 106.229 74.1942 106.211 74.2086C106.193 74.223 106.172 74.2337 106.15 74.2402C106.053 74.2711 105.969 74.3316 105.909 74.4133C105.848 74.495 105.815 74.5936 105.814 74.6951C105.797 74.874 105.832 75.054 105.914 75.2139C105.996 75.3738 106.121 75.5071 106.276 75.5981C106.603 75.6989 106.946 75.7335 107.286 75.6998C107.627 75.6662 107.957 75.565 108.257 75.4021L111.946 74.0021C112.102 73.9317 112.276 73.9121 112.443 73.9462C112.543 73.9847 112.633 74.0458 112.706 74.1247C112.779 74.2036 112.833 74.2982 112.863 74.4012C112.905 74.4998 112.964 74.5899 113.038 74.6672C113.178 74.7792 113.423 74.7301 113.773 74.5271L116.748 72.7492C116.927 72.6154 117.148 72.5486 117.371 72.5601C117.833 72.6301 117.938 73.1061 118.022 73.4911C118.043 73.6026 118.071 73.7125 118.106 73.8201C118.252 74.1282 118.502 74.375 118.812 74.5171C119.121 74.6592 119.471 74.6876 119.8 74.5971C120.442 74.403 121.038 74.079 121.55 73.6451L121.711 73.5262C122.034 73.2492 122.435 73.0803 122.859 73.0431C123.157 73.0704 123.446 73.1611 123.706 73.3092H123.762C125.076 73.9372 126.506 74.2874 127.962 74.3382C127.861 74.1195 127.823 73.8773 127.85 73.6382C127.872 73.4036 127.943 73.1761 128.057 72.9701C128.172 72.7641 128.328 72.584 128.515 72.4411C128.849 72.2357 129.22 72.0994 129.607 72.0405C129.994 71.9816 130.39 72.0012 130.769 72.0981C131.544 72.2471 132.283 72.5442 132.946 72.9731L133.17 73.1271C133.386 73.2922 133.621 73.4309 133.87 73.5402C134.668 73.7101 135.5 73.5962 136.222 73.2181L136.831 72.9942C138.826 72.3432 140.989 72.6371 142.893 72.8891L150.39 73.8971C150.414 73.8988 150.436 73.9053 150.457 73.9163C150.478 73.9273 150.496 73.9425 150.511 73.961C150.525 73.9794 150.536 74.0007 150.541 74.0235C150.547 74.0463 150.548 74.07 150.544 74.0931C150.537 74.1384 150.513 74.1792 150.476 74.2067C150.439 74.2342 150.394 74.2462 150.348 74.2402L142.851 73.2391C140.975 72.9871 138.854 72.7002 136.943 73.3302L136.341 73.5402C135.84 73.8925 135.238 74.071 134.626 74.0482C134.014 74.0255 133.426 73.8027 132.953 73.4141L132.729 73.2672C132.106 72.8605 131.409 72.5799 130.678 72.4411C130.345 72.3548 129.999 72.3357 129.659 72.385C129.319 72.4342 128.992 72.5509 128.697 72.7282C128.55 72.8394 128.428 72.9804 128.338 73.142C128.249 73.3036 128.195 73.4822 128.179 73.6661C128.164 73.7921 128.177 73.9197 128.215 74.0404C128.254 74.1611 128.318 74.2722 128.403 74.3661C128.425 74.3918 128.44 74.4231 128.445 74.4566C128.451 74.4901 128.447 74.5245 128.434 74.5558C128.42 74.5871 128.399 74.6141 128.371 74.6338C128.344 74.6535 128.311 74.665 128.277 74.6672C126.656 74.658 125.058 74.2924 123.594 73.5962H123.538C123.324 73.4695 123.085 73.3907 122.838 73.3652C122.495 73.4096 122.173 73.5559 121.914 73.7851L121.753 73.8971C121.205 74.3665 120.563 74.7127 119.87 74.9121C119.459 75.02 119.023 74.9795 118.639 74.7977C118.255 74.6159 117.947 74.3044 117.77 73.9181C117.735 73.8061 117.707 73.6802 117.679 73.5612C117.595 73.1692 117.525 72.9312 117.322 72.9032C117.18 72.909 117.044 72.9578 116.93 73.0431L113.948 74.8212C113.766 74.9262 113.213 75.2551 112.814 74.9331C112.7 74.8243 112.61 74.6933 112.548 74.5481C112.478 74.3941 112.422 74.2961 112.345 74.2751C112.251 74.2631 112.156 74.2802 112.072 74.3242L108.383 75.7242C107.91 75.9279 107.406 76.0487 106.892 76.0811Z" fill="#263238"/>
<path d="M158.685 74.7862C158.52 74.7917 158.358 74.7505 158.216 74.6672C158.121 74.6072 158.043 74.5233 157.99 74.4238C157.937 74.3243 157.911 74.2127 157.915 74.1001C157.915 74.0167 157.938 73.9348 157.981 73.8633C158.024 73.7918 158.086 73.7334 158.16 73.6942C158.202 73.6741 158.25 73.671 158.294 73.6853C158.338 73.6996 158.376 73.7303 158.398 73.7712C158.418 73.8132 158.421 73.8612 158.407 73.9055C158.392 73.9497 158.362 73.9868 158.321 74.0092C158.301 74.0181 158.285 74.0332 158.275 74.0522C158.265 74.0712 158.261 74.0929 158.265 74.1142C158.264 74.1632 158.275 74.2116 158.297 74.2554C158.319 74.2992 158.351 74.3372 158.391 74.3662C158.617 74.451 158.865 74.451 159.091 74.3662C160.417 74.1106 161.728 73.7834 163.018 73.3862C163.662 73.1902 164.418 73.1832 164.621 73.7712C164.642 73.842 164.656 73.9147 164.663 73.9882C164.669 74.0618 164.691 74.1333 164.726 74.1981C164.789 74.2821 164.964 74.2892 165.111 74.2892C166.997 74.2391 168.865 73.9113 170.655 73.3162C170.699 73.3013 170.748 73.3048 170.79 73.3258C170.832 73.3468 170.864 73.3836 170.879 73.4282C170.894 73.4727 170.89 73.5213 170.869 73.5633C170.848 73.6054 170.811 73.6373 170.767 73.6521C168.942 74.2563 167.039 74.5889 165.118 74.6392C164.991 74.6608 164.86 74.6503 164.738 74.6088C164.616 74.5672 164.506 74.4959 164.418 74.4012C164.343 74.294 164.299 74.1679 164.292 74.0372C164.287 73.9845 164.275 73.9327 164.257 73.8832C164.103 73.4212 163.193 73.6872 163.095 73.7222C161.793 74.1209 160.47 74.4504 159.133 74.7092C158.986 74.7487 158.836 74.7744 158.685 74.7862Z" fill="#263238"/>
<path d="M77.5549 168.047C77.2879 168.052 77.0237 167.992 76.7849 167.872C76.5637 167.752 76.3831 167.568 76.2659 167.345C76.1488 167.122 76.1004 166.87 76.1269 166.619C76.1326 166.446 76.1934 166.279 76.3004 166.143C76.4075 166.008 76.5551 165.909 76.7219 165.863C76.7448 165.854 76.7693 165.85 76.7938 165.852C76.8182 165.853 76.8422 165.859 76.8641 165.87C76.8859 165.881 76.9052 165.897 76.9207 165.916C76.9362 165.935 76.9475 165.957 76.9539 165.981C76.9603 166.004 76.9617 166.029 76.9579 166.053C76.9541 166.077 76.9453 166.101 76.932 166.121C76.9187 166.142 76.9013 166.159 76.8808 166.173C76.8602 166.186 76.8371 166.195 76.8129 166.199C76.7162 166.23 76.6317 166.291 76.5714 166.372C76.511 166.454 76.478 166.553 76.4769 166.654C76.4605 166.834 76.4951 167.015 76.5768 167.176C76.6586 167.337 76.7841 167.471 76.9389 167.564C77.6001 167.762 78.3126 167.689 78.9199 167.361L82.6089 165.961C82.7646 165.891 82.9385 165.871 83.1059 165.905C83.2062 165.944 83.2962 166.005 83.369 166.084C83.4418 166.163 83.4955 166.257 83.5259 166.36C83.5658 166.46 83.6253 166.55 83.7009 166.626C83.8409 166.738 84.0859 166.689 84.4009 166.486L87.3759 164.708C87.5576 164.58 87.7768 164.516 87.9989 164.526C88.4609 164.589 88.5659 165.065 88.6499 165.45C88.6705 165.562 88.6985 165.671 88.7339 165.779C88.8831 166.082 89.1332 166.323 89.4412 166.461C89.7492 166.599 90.0957 166.625 90.4209 166.535C91.0614 166.342 91.6549 166.017 92.1639 165.583L92.3319 165.464C92.5852 165.198 92.9245 165.03 93.2897 164.99C93.6549 164.951 94.0224 165.042 94.3269 165.247H94.3759C95.6909 165.873 97.1203 166.224 98.5759 166.276C98.4792 166.056 98.4406 165.815 98.4639 165.576C98.4904 165.339 98.5664 165.11 98.687 164.903C98.8076 164.697 98.97 164.519 99.1639 164.379C99.4982 164.175 99.8696 164.04 100.257 163.981C100.643 163.922 101.038 163.941 101.418 164.036C102.193 164.185 102.932 164.482 103.595 164.911L103.812 165.065C104.244 165.416 104.78 165.614 105.337 165.631C105.893 165.647 106.439 165.48 106.892 165.156L107.501 164.932C109.489 164.288 111.659 164.575 113.563 164.827L121.06 165.835C121.083 165.837 121.106 165.843 121.127 165.854C121.148 165.865 121.166 165.88 121.18 165.899C121.195 165.917 121.205 165.939 121.211 165.961C121.217 165.984 121.218 166.008 121.214 166.031C121.205 166.076 121.181 166.115 121.144 166.143C121.108 166.17 121.063 166.182 121.018 166.178L113.5 165.247C111.624 164.995 109.503 164.715 107.592 165.338L106.99 165.548C106.196 165.972 105.274 166.089 104.4 165.877C104.114 165.759 103.843 165.606 103.595 165.422L103.378 165.275C102.753 164.871 102.057 164.591 101.327 164.449C100.994 164.364 100.648 164.346 100.308 164.395C99.9679 164.444 99.641 164.56 99.3459 164.736C99.1993 164.848 99.0775 164.989 98.9883 165.151C98.8991 165.312 98.8445 165.49 98.8279 165.674C98.8132 165.8 98.8256 165.928 98.8642 166.048C98.9028 166.169 98.9668 166.28 99.0519 166.374C99.0742 166.4 99.0888 166.431 99.0942 166.465C99.0996 166.498 99.0955 166.532 99.0824 166.564C99.0693 166.595 99.0477 166.622 99.0201 166.642C98.9924 166.661 98.9598 166.673 98.9259 166.675C97.3054 166.665 95.7068 166.299 94.2429 165.604H94.1869C93.9716 165.481 93.7335 165.402 93.4869 165.373C93.1439 165.417 92.822 165.564 92.5629 165.793L92.4019 165.912C91.8522 166.377 91.2105 166.72 90.5189 166.92C90.1079 167.028 89.672 166.987 89.2879 166.806C88.9038 166.624 88.5961 166.312 88.4189 165.926C88.3839 165.814 88.3559 165.695 88.3279 165.569C88.2439 165.177 88.1739 164.939 87.9709 164.911C87.8291 164.917 87.6924 164.966 87.5789 165.051L84.5969 166.829C84.4149 166.934 83.8969 167.27 83.4629 166.941C83.3475 166.833 83.2567 166.702 83.1969 166.556C83.1269 166.402 83.0779 166.304 82.9939 166.283C82.9002 166.275 82.8059 166.292 82.7209 166.332L79.0249 167.732C78.5565 167.92 78.0593 168.027 77.5549 168.047Z" fill="#263238"/>
<path d="M129.348 166.717C129.184 166.723 129.021 166.681 128.879 166.598C128.784 166.538 128.706 166.454 128.653 166.355C128.6 166.255 128.574 166.144 128.578 166.031C128.578 165.948 128.601 165.866 128.644 165.794C128.688 165.723 128.749 165.664 128.823 165.625C128.865 165.605 128.913 165.602 128.957 165.616C129.002 165.631 129.039 165.661 129.061 165.702C129.081 165.744 129.084 165.792 129.07 165.836C129.056 165.881 129.025 165.918 128.984 165.94C128.964 165.949 128.948 165.964 128.938 165.983C128.928 166.002 128.925 166.024 128.928 166.045C128.927 166.094 128.938 166.143 128.96 166.187C128.982 166.231 129.014 166.269 129.054 166.297C129.28 166.382 129.528 166.382 129.754 166.297C131.08 166.044 132.391 165.717 133.681 165.317C134.325 165.121 135.081 165.114 135.284 165.702C135.305 165.773 135.319 165.846 135.326 165.919C135.332 165.993 135.354 166.064 135.389 166.129C135.452 166.213 135.627 166.22 135.774 166.22C137.65 166.167 139.509 165.84 141.29 165.247C141.335 165.232 141.383 165.236 141.425 165.257C141.467 165.278 141.499 165.315 141.514 165.359C141.529 165.404 141.525 165.452 141.504 165.494C141.483 165.536 141.447 165.568 141.402 165.583C139.578 166.187 137.674 166.52 135.753 166.57C135.626 166.593 135.496 166.584 135.374 166.544C135.251 166.503 135.141 166.433 135.053 166.339C134.977 166.23 134.933 166.101 134.927 165.968C134.934 165.917 134.934 165.865 134.927 165.814C134.773 165.352 133.863 165.618 133.758 165.653C132.458 166.052 131.138 166.381 129.803 166.64C129.654 166.681 129.502 166.707 129.348 166.717Z" fill="#263238"/>
<path d="M115.929 82.9062C115.206 82.9286 114.497 82.7094 113.913 82.2832C113.659 82.0841 113.453 81.8305 113.311 81.5412C113.124 81.6851 112.913 81.7942 112.688 81.8632C112.151 81.9801 111.596 81.9812 111.059 81.8666C110.522 81.7519 110.015 81.524 109.573 81.1982C109.464 81.1103 109.333 81.0545 109.195 81.0372C109.033 81.0721 108.887 81.161 108.782 81.2892L108.292 81.7512C108.104 81.9297 107.876 82.0591 107.626 82.1281C107.376 82.1971 107.114 82.2036 106.861 82.1468C106.608 82.09 106.374 81.9719 106.178 81.8027C105.982 81.6336 105.83 81.4187 105.737 81.1772L105.513 80.6102C103.345 81.3977 101.006 81.5934 98.7369 81.1772C97.9107 81.6419 97.0029 81.9437 96.0629 82.0662C96.0363 82.0688 96.0095 82.0659 95.9842 82.0574C95.9588 82.049 95.9356 82.0353 95.9159 82.0172C95.8978 81.9987 95.8835 81.9768 95.8739 81.9528C95.8643 81.9287 95.8596 81.903 95.8599 81.8772C95.9008 81.4093 95.8111 80.9392 95.6009 80.5192C94.6898 80.9275 93.6724 81.0354 92.6959 80.8272L92.4999 80.7852C92.2908 80.7229 92.0741 80.6899 91.8559 80.6872C91.5222 80.7283 91.2018 80.843 90.9179 81.0232L90.5819 81.2122C89.9398 81.6239 89.2283 81.9157 88.4819 82.0732C88.0556 82.1608 87.6131 82.1229 87.208 81.9638C86.8029 81.8047 86.4527 81.5315 86.1999 81.1772C85.7685 81.5315 85.2164 81.7046 84.6599 81.6602C84.4617 81.617 84.2794 81.5195 84.1335 81.3785C83.9876 81.2376 83.8839 81.0588 83.8339 80.8622C83.7886 80.7256 83.7865 80.5785 83.8279 80.4407C83.8692 80.3029 83.952 80.1812 84.0649 80.0922C84.0984 80.0617 84.1421 80.0448 84.1874 80.0448C84.2327 80.0448 84.2764 80.0617 84.3099 80.0922C84.3365 80.131 84.3476 80.1783 84.3412 80.2249C84.3347 80.2715 84.3111 80.3141 84.2749 80.3442C84.22 80.3945 84.1809 80.4596 84.1623 80.5316C84.1437 80.6037 84.1463 80.6796 84.1699 80.7502C84.2039 80.8809 84.2726 81 84.3687 81.0949C84.4648 81.1898 84.5848 81.2569 84.7159 81.2892C85.2492 81.2961 85.7659 81.1039 86.1649 80.7502C86.1881 80.7399 86.2131 80.7347 86.2384 80.7347C86.2637 80.7347 86.2888 80.7399 86.3119 80.7502C86.3616 80.7692 86.4018 80.8069 86.4239 80.8552C86.6221 81.1941 86.9227 81.4614 87.2824 81.6187C87.6422 81.7759 88.0426 81.815 88.4259 81.7302C89.1222 81.5706 89.7854 81.2911 90.3859 80.9042L90.7219 80.7152C91.0512 80.5051 91.4253 80.3756 91.8139 80.3372C92.0648 80.3388 92.3144 80.3741 92.5559 80.4422L92.7379 80.4842C93.6962 80.6875 94.695 80.5617 95.5729 80.1272C95.6135 80.1101 95.6589 80.1077 95.7011 80.1205C95.7432 80.1333 95.7796 80.1604 95.8039 80.1972C96.0612 80.652 96.1963 81.1656 96.1959 81.6882C97.0389 81.5542 97.8502 81.2671 98.5899 80.8412C98.6284 80.8273 98.6705 80.8273 98.7089 80.8412C100.991 81.2747 103.349 81.0663 105.52 80.2392C105.565 80.2232 105.614 80.2252 105.657 80.2448C105.7 80.2644 105.734 80.3 105.751 80.3442L106.038 81.0442C106.111 81.2311 106.228 81.3972 106.38 81.5281C106.532 81.659 106.714 81.7505 106.909 81.7948C107.105 81.839 107.308 81.8345 107.502 81.7818C107.695 81.729 107.873 81.6296 108.019 81.4922L108.516 81.0232C108.681 80.833 108.91 80.7107 109.16 80.6802C109.365 80.6943 109.562 80.7672 109.727 80.8902C110.125 81.1829 110.579 81.3905 111.061 81.5001C111.542 81.6097 112.041 81.6189 112.527 81.5272C112.742 81.4552 112.941 81.3436 113.115 81.1982C113.039 80.9724 112.999 80.7363 112.996 80.4982C112.981 80.2328 113.029 79.9676 113.136 79.7243C113.243 79.4811 113.406 79.2665 113.612 79.0982C113.652 79.0691 113.702 79.0566 113.752 79.0632C113.775 79.0671 113.797 79.076 113.816 79.0893C113.836 79.1026 113.852 79.1199 113.864 79.1402C113.993 79.3472 114.072 79.5819 114.094 79.8251C114.116 80.0684 114.08 80.3133 113.99 80.5402C113.884 80.8162 113.725 81.0684 113.521 81.2822C113.649 81.5548 113.838 81.7943 114.074 81.9822C114.526 82.2653 115.035 82.4458 115.565 82.5111C116.095 82.5764 116.632 82.5249 117.14 82.3602C117.673 82.2144 118.196 82.0368 118.708 81.8282C120.039 81.2699 121.464 80.9683 122.908 80.9392C123.6 80.9018 124.29 80.8223 124.973 80.7012L125.778 80.5192C126.947 80.2392 128.151 79.9592 129.215 80.5192C129.236 80.5295 129.254 80.544 129.27 80.5616C129.285 80.5793 129.296 80.5998 129.303 80.622C129.311 80.6441 129.313 80.6675 129.311 80.6907C129.309 80.7139 129.303 80.7365 129.292 80.7572C129.281 80.7774 129.266 80.7953 129.248 80.8098C129.23 80.8243 129.21 80.8351 129.187 80.8416C129.165 80.8481 129.142 80.8502 129.119 80.8477C129.096 80.8452 129.074 80.8382 129.054 80.8272C128.109 80.3302 126.954 80.5962 125.862 80.8622L125.043 81.0442C124.348 81.1633 123.647 81.245 122.943 81.2892C122.104 81.3313 121.271 81.4437 120.451 81.6252C119.919 81.7741 119.396 81.9517 118.883 82.1572C118.357 82.3695 117.819 82.5517 117.273 82.7032C116.834 82.8236 116.383 82.8917 115.929 82.9062ZM113.731 79.5322C113.507 79.7977 113.39 80.137 113.402 80.4842C113.401 80.6256 113.417 80.7667 113.451 80.9042C113.562 80.7593 113.652 80.5989 113.717 80.4282C113.826 80.1403 113.831 79.8233 113.731 79.5322Z" fill="#263238"/>
<path d="M141.78 82.2971C141.574 82.2971 141.368 82.283 141.164 82.2551C141.117 82.2476 141.074 82.2226 141.045 82.1851C141.035 82.1644 141.03 82.1416 141.03 82.1186C141.03 82.0956 141.035 82.0729 141.045 82.0521C141.1 81.737 141.081 81.4135 140.989 81.1071C139.137 81.881 137.095 82.0762 135.13 81.6671C135.101 81.6625 135.075 81.6503 135.053 81.6319C135.03 81.6134 135.014 81.5893 135.004 81.5621C134.99 81.5374 134.983 81.5098 134.983 81.4816C134.983 81.4535 134.99 81.4258 135.004 81.4011L135.536 80.6241C135.548 80.6049 135.564 80.5883 135.582 80.5753C135.601 80.5623 135.622 80.5533 135.644 80.5487C135.667 80.5441 135.69 80.5441 135.712 80.5487C135.734 80.5532 135.755 80.5622 135.774 80.5751C135.793 80.5878 135.81 80.6043 135.823 80.6236C135.836 80.6428 135.845 80.6645 135.85 80.6873C135.854 80.7101 135.854 80.7336 135.85 80.7564C135.845 80.7792 135.836 80.8009 135.823 80.8201L135.438 81.3801C137.316 81.7165 139.251 81.485 140.996 80.7151C141.018 80.7046 141.042 80.6991 141.066 80.6991C141.09 80.6991 141.114 80.7046 141.136 80.7151C141.179 80.7313 141.215 80.764 141.234 80.8061C141.375 81.1639 141.428 81.5505 141.388 81.9331C142.942 82.0801 144.426 81.2821 145.854 80.5331C146.267 80.3091 146.687 80.0781 147.107 79.8751C147.331 79.7376 147.598 79.6877 147.856 79.7351C148.119 79.8432 148.33 80.049 148.444 80.3091C148.475 80.3698 148.51 80.4283 148.549 80.4841C149.102 81.3171 150.376 81.2961 151.349 81.1351C151.655 81.0692 151.969 81.055 152.28 81.0931C152.506 81.15 152.723 81.2396 152.924 81.3591L153.134 81.4641C154.296 82.0241 155.808 81.8351 157.761 80.8901C158.692 80.4351 159.763 80.0011 160.596 80.5751C160.618 80.5865 160.637 80.6025 160.652 80.6219C160.668 80.6413 160.679 80.6638 160.685 80.6878C160.691 80.7117 160.692 80.7367 160.687 80.7611C160.683 80.7854 160.674 80.8086 160.66 80.829C160.646 80.8494 160.628 80.8666 160.606 80.8796C160.585 80.8925 160.562 80.9008 160.537 80.9039C160.513 80.907 160.488 80.9049 160.464 80.8977C160.44 80.8905 160.419 80.8784 160.4 80.8621C159.7 80.3931 158.755 80.7921 157.908 81.2051C155.857 82.1991 154.247 82.3881 153.008 81.7791L152.791 81.6671C152.619 81.5679 152.436 81.4903 152.245 81.4361C151.988 81.4025 151.727 81.4167 151.475 81.4781C149.9 81.7371 148.815 81.4781 148.29 80.6801L148.171 80.4911C148.059 80.3021 147.954 80.1201 147.793 80.0711C147.618 80.0519 147.443 80.094 147.296 80.1901C146.883 80.3931 146.463 80.6171 146.057 80.8411C144.664 81.5411 143.278 82.2971 141.78 82.2971Z" fill="#263238"/>
<path d="M83.078 96.4512H82.91C82.6911 96.3878 82.4987 96.2554 82.3612 96.0738C82.2237 95.8922 82.1485 95.671 82.147 95.4431C82.1603 95.0383 82.2631 94.6415 82.448 94.2811C82.4571 94.26 82.4703 94.2408 82.4869 94.2247C82.5035 94.2087 82.5231 94.196 82.5445 94.1876C82.566 94.1791 82.5889 94.175 82.612 94.1754C82.6351 94.1759 82.6578 94.1809 82.679 94.1902C82.7206 94.21 82.7531 94.2449 82.77 94.2877C82.7869 94.3306 82.7869 94.3783 82.77 94.4212C82.6072 94.7335 82.514 95.0774 82.497 95.4291C82.4895 95.5827 82.5327 95.7344 82.62 95.8609C82.7073 95.9874 82.8338 96.0817 82.98 96.1291C83.166 96.1478 83.3535 96.1113 83.519 96.0242C84.2462 95.7279 84.8953 95.268 85.416 94.6802C85.4382 94.6529 85.4681 94.633 85.5018 94.623C85.5355 94.613 85.5715 94.6134 85.605 94.6242C85.899 94.7222 85.941 95.0161 85.983 95.2541C85.9884 95.3853 86.0269 95.5129 86.095 95.6251C86.193 95.7301 86.396 95.7371 86.711 95.6251C87.7944 95.2804 88.8537 94.8642 89.882 94.3791C90.1978 94.2124 90.5631 94.1652 90.911 94.2462C90.9829 94.2727 91.0485 94.3138 91.1039 94.3667C91.1593 94.4197 91.2032 94.4835 91.233 94.5541C91.2745 94.6709 91.2935 94.7944 91.289 94.9182C91.2798 95.0074 91.2968 95.0974 91.338 95.1771C91.401 95.2471 91.548 95.2541 91.793 95.1771L94.593 94.4141C95.1575 94.1978 95.7725 94.1491 96.364 94.2742C96.5482 94.3341 96.718 94.4316 96.8625 94.5605C97.0071 94.6894 97.1234 94.847 97.204 95.0231C97.2936 95.2205 97.3157 95.4419 97.267 95.6532C97.7244 95.827 98.2165 95.8903 98.703 95.838C99.1896 95.7857 99.6569 95.6192 100.067 95.3521C100.086 95.3391 100.108 95.3299 100.131 95.3253C100.153 95.3207 100.177 95.3207 100.2 95.3252C100.223 95.3298 100.244 95.3388 100.264 95.3519C100.283 95.3649 100.299 95.3817 100.312 95.4012C100.337 95.4405 100.345 95.4878 100.336 95.5334C100.327 95.5789 100.301 95.6193 100.263 95.6462C99.784 95.9547 99.236 96.1398 98.668 96.185C98.1001 96.2302 97.5297 96.134 97.008 95.9052C96.9858 95.8977 96.9659 95.8848 96.95 95.8677C96.9341 95.8506 96.9228 95.8298 96.917 95.8072C96.9065 95.7865 96.9011 95.7638 96.9011 95.7407C96.9011 95.7175 96.9065 95.6948 96.917 95.6742C96.954 95.5941 96.9732 95.5069 96.9732 95.4186C96.9732 95.3304 96.954 95.2432 96.917 95.1632C96.856 95.0336 96.7693 94.9178 96.6622 94.8227C96.5551 94.7276 96.4299 94.6553 96.294 94.6101C95.766 94.5121 95.2213 94.5605 94.719 94.7501L91.919 95.5202C91.779 95.5202 91.338 95.6811 91.1 95.3871C91.0033 95.2509 90.9587 95.0845 90.974 94.9182C90.9868 94.8417 90.9868 94.7636 90.974 94.6871C90.9493 94.6308 90.9043 94.5859 90.848 94.5612C90.5882 94.5144 90.3202 94.5616 90.092 94.6942C89.0489 95.1821 87.9757 95.6029 86.879 95.9541C86.711 96.0031 86.179 96.1711 85.899 95.8351C85.779 95.6771 85.7084 95.4872 85.696 95.2891C85.6871 95.1935 85.6659 95.0994 85.633 95.0092C85.0972 95.584 84.4427 96.0355 83.715 96.3322C83.5132 96.4157 83.2963 96.4563 83.078 96.4512Z" fill="#263238"/>
<path d="M108.033 97.8722C107.855 97.8971 107.673 97.8581 107.521 97.762C107.368 97.6659 107.255 97.519 107.2 97.3472C107.149 97.0773 107.153 96.7999 107.212 96.5316C107.271 96.2634 107.384 96.0098 107.543 95.7862C107.023 95.9892 106.47 96.0937 105.912 96.0942C105.598 96.1217 105.282 96.0656 104.997 95.9315C104.712 95.7975 104.467 95.5904 104.288 95.3312C104.199 95.1542 104.162 94.9555 104.182 94.7584C104.202 94.5613 104.278 94.3739 104.4 94.2182C104.48 94.0927 104.597 93.996 104.736 93.9418C104.874 93.8877 105.026 93.8791 105.17 93.9172C105.215 93.9303 105.253 93.9601 105.276 94.0005C105.3 94.0409 105.307 94.0887 105.296 94.1342C105.29 94.1569 105.28 94.1782 105.266 94.1969C105.252 94.2156 105.234 94.2312 105.214 94.243C105.194 94.2547 105.172 94.2623 105.148 94.2653C105.125 94.2682 105.102 94.2665 105.079 94.2602C105.003 94.2456 104.924 94.2546 104.852 94.2858C104.781 94.317 104.721 94.3691 104.68 94.4352C104.604 94.5333 104.556 94.6499 104.54 94.7729C104.524 94.8958 104.541 95.0209 104.589 95.1352C104.747 95.3333 104.95 95.4903 105.182 95.5927C105.413 95.6951 105.666 95.7398 105.919 95.7232H105.961C106.69 95.7206 107.405 95.5172 108.026 95.1352C108.23 94.9246 108.467 94.7474 108.726 94.6102C108.764 94.5907 108.807 94.5857 108.849 94.596C108.89 94.6063 108.926 94.6312 108.95 94.6662C108.977 94.6987 108.991 94.7395 108.991 94.7817C108.991 94.8238 108.977 94.8646 108.95 94.8972C108.735 95.0906 108.5 95.2618 108.25 95.4082C108.006 95.6376 107.816 95.919 107.695 96.2316C107.574 96.5442 107.524 96.8799 107.55 97.2142C107.627 97.4522 107.865 97.5432 108.25 97.4802C109.538 96.9859 110.724 96.2599 111.75 95.3382L112.52 94.7292C112.551 94.7084 112.588 94.6973 112.625 94.6973C112.662 94.6973 112.699 94.7084 112.73 94.7292C112.762 94.7493 112.785 94.78 112.797 94.8158C112.809 94.8516 112.807 94.8903 112.793 94.9252L112.422 96.0662C114.129 95.935 115.762 95.3153 117.126 94.2812C117.163 94.2533 117.21 94.2414 117.256 94.2479C117.302 94.2545 117.343 94.279 117.371 94.3162C117.399 94.3533 117.411 94.4 117.404 94.4459C117.398 94.4919 117.373 94.5333 117.336 94.5612C116.859 94.9358 116.52 95.4575 116.37 96.0452L120.766 95.0232C120.873 94.9862 120.986 94.9727 121.098 94.9835C121.211 94.9944 121.319 95.0294 121.417 95.0862C121.556 95.2139 121.643 95.3883 121.662 95.5762C121.659 95.6181 121.659 95.6602 121.662 95.7022C121.872 96.4792 123.062 96.5072 123.587 96.4792C124.484 96.4919 125.374 96.3154 126.198 95.9612C126.772 95.7295 127.359 95.5308 127.955 95.3662C128.029 95.353 128.105 95.3589 128.176 95.3834C128.247 95.4079 128.311 95.4502 128.361 95.5062C128.508 95.6952 128.417 95.9822 128.319 96.2832C128.221 96.5842 128.158 96.7942 128.242 96.8712C128.326 96.9482 128.417 96.9972 129.124 96.7662L132.897 94.5472C133.288 94.2654 133.753 94.1048 134.234 94.0852C134.545 94.141 134.842 94.2591 135.107 94.4323C135.371 94.6055 135.598 94.8302 135.774 95.0932L135.844 95.1842C136.125 95.614 136.523 95.9542 136.992 96.1642C137.133 96.2021 137.28 96.206 137.423 96.1756C137.565 96.1452 137.698 96.0813 137.811 95.9892C137.878 95.9394 137.931 95.8735 137.965 95.7976C138 95.7216 138.014 95.6382 138.007 95.5552C138 95.5155 138.007 95.4745 138.028 95.4398C138.048 95.4051 138.081 95.379 138.119 95.3662C138.158 95.355 138.199 95.3564 138.237 95.3703C138.274 95.3841 138.307 95.4096 138.329 95.4432C138.627 95.9161 139.061 96.2873 139.575 96.5072C139.932 96.4442 140.1 96.0592 140.275 95.6112C140.341 95.368 140.457 95.1414 140.617 94.946C140.776 94.7507 140.974 94.5909 141.199 94.4772C141.532 94.3947 141.882 94.4192 142.2 94.5472C146.75 95.7442 151.699 95.2472 156.06 94.7362C156.083 94.7332 156.106 94.7349 156.129 94.7411C156.151 94.7473 156.172 94.7578 156.19 94.7721C156.209 94.7865 156.224 94.8043 156.235 94.8245C156.246 94.8448 156.253 94.8671 156.256 94.8902C156.26 94.9363 156.247 94.9822 156.218 95.0187C156.189 95.0551 156.148 95.0792 156.102 95.0862C151.706 95.5622 146.722 96.1012 142.102 94.8902C141.849 94.7896 141.571 94.7653 141.304 94.8202C140.947 94.9392 140.772 95.3382 140.604 95.7652C140.436 96.1922 140.142 96.8152 139.561 96.8782C139.534 96.8891 139.504 96.8891 139.477 96.8782C139.005 96.6858 138.586 96.3806 138.259 95.9892C138.202 96.1035 138.121 96.2038 138.021 96.2832C137.865 96.4152 137.678 96.5066 137.478 96.5493C137.277 96.5921 137.07 96.5848 136.873 96.5282C136.337 96.2971 135.88 95.9153 135.557 95.4292L135.487 95.3452C135.344 95.1196 135.156 94.9252 134.936 94.7737C134.716 94.6221 134.468 94.5165 134.206 94.4632C133.791 94.4842 133.391 94.6279 133.058 94.8762L129.257 97.1162C128.557 97.3402 128.179 97.3472 127.976 97.1512C127.773 96.9552 127.871 96.5422 127.976 96.2062C128.018 96.0662 128.102 95.8072 128.067 95.7442H127.99C127.419 95.9055 126.858 96.0995 126.31 96.3252C125.451 96.6883 124.527 96.8718 123.594 96.8642C122.341 96.9272 121.494 96.5492 121.312 95.8282C121.297 95.78 121.285 95.7309 121.277 95.6812C121.268 95.5788 121.229 95.4813 121.165 95.4012C121.088 95.3452 120.941 95.4012 120.808 95.4012L116.139 96.4792C116.111 96.4867 116.081 96.4868 116.053 96.4795C116.025 96.4721 115.999 96.4575 115.978 96.4372C115.956 96.4185 115.94 96.3943 115.932 96.3671C115.923 96.3399 115.922 96.3108 115.929 96.2832C115.986 95.9174 116.112 95.5658 116.3 95.2472C115.034 95.9652 113.617 96.3753 112.163 96.4442C112.135 96.4453 112.107 96.4395 112.081 96.4273C112.055 96.4151 112.033 96.3969 112.016 96.3742C112.003 96.3495 111.996 96.3218 111.996 96.2937C111.996 96.2655 112.003 96.2379 112.016 96.2132L112.289 95.3802L111.974 95.6322C110.919 96.5789 109.7 97.3239 108.376 97.8302C108.263 97.856 108.149 97.87 108.033 97.8722Z" fill="#263238"/>
</svg>
