<svg width="36" height="36" viewBox="0 0 36 36" fill="none" xmlns="http://www.w3.org/2000/svg">
<g clip-path="url(#clip0_0_46)">
<path d="M27 19.5V30H6V8.99997H13.53C13.605 7.93497 13.86 6.92997 14.25 5.99997H6C4.35 5.99997 3 7.34997 3 8.99997V30C3 31.65 4.35 33 6 33H27C28.65 33 30 31.65 30 30V22.5L27 19.5ZM24.75 27H8.25L12.375 21.705L15.315 25.245L19.44 19.935L24.75 27ZM28.95 13.335C29.61 12.285 30 11.07 30 9.74997C30 6.01497 26.985 2.99997 23.25 2.99997C19.515 2.99997 16.5 6.01497 16.5 9.74997C16.5 13.485 19.515 16.5 23.235 16.5C24.555 16.5 25.785 16.11 26.82 15.45L31.5 20.13L33.63 18L28.95 13.335ZM23.25 13.5C21.18 13.5 19.5 11.82 19.5 9.74997C19.5 7.67997 21.18 5.99997 23.25 5.99997C25.32 5.99997 27 7.67997 27 9.74997C27 11.82 25.32 13.5 23.25 13.5Z" fill="black"/>
</g>
<defs>
<clipPath id="clip0_0_46">
<rect width="36" height="36" fill="white"/>
</clipPath>
</defs>
</svg>
